<svg width="343" height="377" viewBox="0 0 343 377" fill="none" xmlns="http://www.w3.org/2000/svg">
<g clip-path="url(#clip0_101_564)">
<path d="M196.016 376.643C194.572 376.643 193.065 376.291 191.894 375.618L2.36224 266.347C1.17516 265.658 0.485352 264.729 0.485352 263.784C0.485352 262.983 0.966576 262.262 1.8649 261.749L114.958 196.533C116.835 195.443 120.123 195.572 122.289 196.821L311.82 306.092C313.007 306.781 313.697 307.71 313.697 308.655C313.697 309.456 313.216 310.177 312.318 310.69L199.225 375.906C198.374 376.403 197.219 376.643 196.016 376.643ZM118.166 196.437C117.092 196.437 116.049 196.661 115.279 197.094L2.18576 262.31C1.51201 262.695 1.12701 263.223 1.12701 263.784C1.12701 264.489 1.68846 265.226 2.68304 265.786L192.214 375.057C194.203 376.195 197.203 376.323 198.904 375.346L311.997 310.129C312.671 309.745 313.056 309.216 313.056 308.655C313.056 307.95 312.494 307.214 311.5 306.653L121.968 197.382C120.877 196.757 119.482 196.437 118.166 196.437Z" fill="#E47AD5"/>
<path d="M312.992 290.318L302.562 288.812L121.978 184.557C119.912 183.355 116.771 183.227 114.977 184.269L7.4217 246.37L0.804688 245.424V254.204H0.820676C0.820676 254.989 1.39746 255.823 2.519 256.463L191.818 365.749C193.885 366.951 197.025 367.079 198.82 366.037L311.774 300.812C312.607 300.331 312.976 299.691 312.96 299.018H312.976V290.302L312.992 290.318Z" fill="url(#paint0_linear_101_564)"/>
<path d="M2.51947 247.735L191.819 357.02C193.885 358.222 197.026 358.35 198.82 357.309L311.775 292.083C313.569 291.042 313.345 289.231 311.278 288.046L121.979 178.76C119.912 177.559 116.772 177.43 114.977 178.472L2.02279 243.697C0.228338 244.738 0.452641 246.549 2.51947 247.735Z" fill="#AFB2BF"/>
<path opacity="0.3" d="M18.9092 249.866L188.101 347.551C189.959 348.625 192.747 348.737 194.365 347.808L295.335 289.52C296.938 288.591 296.745 286.972 294.887 285.915L125.695 188.229C123.837 187.156 121.049 187.044 119.431 187.973L18.4606 246.261C16.8584 247.19 17.0506 248.808 18.9092 249.866Z" fill="#2E2D3D"/>
<path d="M311.79 291.138L198.836 356.363C197.041 357.404 193.901 357.276 191.834 356.075L2.53498 246.789C1.62173 246.26 1.09299 245.619 0.916751 244.979C0.628356 245.908 1.17312 246.949 2.53498 247.734L191.834 357.02C193.901 358.222 197.041 358.35 198.836 357.308L311.79 292.083C312.8 291.506 313.152 290.673 312.912 289.856C312.768 290.337 312.399 290.785 311.79 291.138Z" fill="white"/>
<path d="M121.643 144.678L145.579 2.70773L143.657 1.89062L146.541 0.240351C147.101 -0.112132 147.903 -0.0961086 148.768 0.416593L340.005 110.824C341.576 111.737 342.761 114.06 342.489 115.678L318.376 258.77C318.248 259.523 317.879 260.004 317.366 260.228L314.531 261.862L314.05 259.219L314.21 259.267L124.126 149.517C122.556 148.603 121.37 146.28 121.643 144.662V144.678Z" fill="url(#paint1_linear_101_564)"/>
<path d="M338.931 114.716L342.071 113.322C342.424 114.123 342.6 114.973 342.472 115.694L318.359 258.785C318.231 259.538 317.862 260.019 317.35 260.243L314.514 261.878L314.033 259.234L314.193 259.282L304.58 253.722L338.931 114.7V114.716Z" fill="url(#paint2_linear_101_564)"/>
<path d="M121.13 151.259L312.368 261.666C313.842 262.515 315.107 262.019 315.364 260.497L339.477 117.405C339.749 115.786 338.563 113.447 336.993 112.55L145.756 2.14298C144.282 1.29382 143.016 1.7905 142.759 3.31258L118.647 146.404C118.374 148.023 119.56 150.362 121.13 151.259Z" fill="#2E2D3D"/>
<g opacity="0.51">
<path d="M145.115 4.80859L337.266 115.68L312.992 259.141L120.97 148.333L145.115 4.80859Z" fill="#6C38CC"/>
</g>
<path d="M0.917969 219.003L11.3483 224.451L116.004 164.032C117.75 163.023 120.81 163.151 122.829 164.32L303.332 268.527C305.062 267.566 312.929 263.768 312.929 263.768L309.116 269.985C308.956 270.434 308.619 270.834 308.042 271.171L197.827 334.81C196.081 335.819 193.021 335.691 191.002 334.521L6.30136 227.879C5.46822 227.399 4.95552 226.822 4.74723 226.229L0.950044 219.019L0.917969 219.003Z" fill="url(#paint3_linear_101_564)"/>
<path d="M2.51947 220.733L191.819 330.018C193.885 331.22 197.026 331.348 198.82 330.307L311.775 265.081C313.569 264.04 313.345 262.229 311.278 261.044L121.979 151.758C119.912 150.557 116.772 150.428 114.977 151.47L2.02279 216.695C0.228338 217.737 0.452641 219.547 2.51947 220.733Z" fill="#AFB2BF"/>
<path d="M2.51996 219.884L191.819 329.17C193.886 330.372 197.026 330.5 198.821 329.458L311.775 264.233C312.4 263.865 312.769 263.4 312.913 262.903C313.121 263.704 312.753 264.505 311.775 265.082L198.821 330.307C197.026 331.349 193.886 331.221 191.819 330.019L2.51996 220.733C1.17412 219.964 0.629393 218.923 0.885744 218.01C1.04596 218.667 1.59069 219.34 2.51996 219.884Z" fill="white"/>
<g opacity="0.15">
<mask id="mask0_101_564" style="mask-type:luminance" maskUnits="userSpaceOnUse" x="120" y="4" width="218" height="256">
<g opacity="0.15">
<path d="M337.265 115.671L145.114 4.79883L120.969 148.323L312.992 259.131L337.265 115.671Z" fill="white"/>
</g>
</mask>
<g mask="url(#mask0_101_564)">
<path d="M120.892 150.323L131.322 155.771L235.977 95.3522C237.724 94.3429 240.784 94.4711 242.802 95.6407L423.306 199.847C425.036 198.886 432.903 195.089 432.903 195.089L429.089 201.305C428.929 201.754 428.593 202.154 428.016 202.491L317.801 266.13C316.055 267.139 312.995 267.011 310.976 265.842L126.275 159.2C125.442 158.719 124.929 158.142 124.721 157.549L120.924 150.34L120.892 150.323Z" fill="url(#paint4_linear_101_564)"/>
<path d="M122.51 152.053L311.809 261.338C313.876 262.54 317.016 262.668 318.81 261.627L431.765 196.402C433.559 195.36 433.335 193.55 431.268 192.364L241.969 83.0785C239.902 81.8769 236.762 81.7487 234.968 82.7901L122.013 148.015C120.219 149.057 120.443 150.867 122.51 152.053Z" fill="url(#paint5_linear_101_564)"/>
<path d="M431.269 192.364L241.969 83.0785C240.64 82.3095 238.861 81.989 237.291 82.1332C238.461 82.2294 239.63 82.5338 240.576 83.0785L429.875 192.364C431.941 193.566 432.166 195.376 430.371 196.402L317.417 261.627C316.776 261.995 315.959 262.204 315.093 262.284C316.471 262.396 317.833 262.188 318.811 261.627L431.765 196.402C433.56 195.36 433.335 193.55 431.269 192.364Z" fill="white"/>
<g opacity="0.5">
<path d="M221.652 133.232L215.58 129.723C215.099 129.434 214.266 129.466 213.737 129.771L206.992 133.712C206.463 134.017 206.431 134.497 206.912 134.786L212.984 138.294C213.465 138.583 214.298 138.551 214.827 138.246L221.572 134.305C222.101 134.001 222.133 133.52 221.652 133.232Z" fill="#2E2D3D"/>
<path d="M231.025 138.649L224.953 135.141C224.472 134.852 223.639 134.884 223.11 135.189L216.365 139.13C215.836 139.435 215.804 139.915 216.285 140.204L222.357 143.712C222.838 144.001 223.671 143.969 224.2 143.664L230.945 139.723C231.474 139.419 231.506 138.938 231.025 138.649Z" fill="#2E2D3D"/>
<path d="M240.397 144.062L234.325 140.553C233.844 140.264 233.011 140.296 232.482 140.601L225.737 144.542C225.208 144.847 225.176 145.327 225.657 145.616L231.729 149.125C232.21 149.413 233.043 149.381 233.572 149.076L240.317 145.135C240.846 144.831 240.878 144.35 240.397 144.062Z" fill="#2E2D3D"/>
<path d="M233.268 151.253L227.195 147.744C226.715 147.456 225.882 147.488 225.353 147.792L219.697 151.093C219.168 151.397 219.136 151.878 219.617 152.166L225.689 155.675C226.17 155.963 227.003 155.931 227.532 155.627L233.188 152.326C233.716 152.022 233.748 151.541 233.268 151.253Z" fill="#2E2D3D"/>
<path d="M242.64 156.671L236.567 153.162C236.087 152.874 235.254 152.906 234.725 153.21L229.069 156.511C228.54 156.815 228.508 157.296 228.989 157.584L235.061 161.093C235.542 161.381 236.375 161.349 236.904 161.045L242.56 157.744C243.088 157.44 243.12 156.959 242.64 156.671Z" fill="#2E2D3D"/>
<path d="M252.013 162.071L245.94 158.563C245.46 158.274 244.627 158.306 244.098 158.611L238.442 161.911C237.913 162.216 237.881 162.696 238.362 162.985L244.434 166.493C244.915 166.782 245.748 166.75 246.277 166.445L251.933 163.145C252.461 162.84 252.493 162.36 252.013 162.071Z" fill="#2E2D3D"/>
<path d="M261.387 167.487L255.314 163.979C254.834 163.69 254.001 163.722 253.472 164.027L247.816 167.327C247.287 167.632 247.255 168.112 247.736 168.401L253.808 171.909C254.289 172.198 255.122 172.166 255.651 171.861L261.307 168.561C261.835 168.256 261.867 167.776 261.387 167.487Z" fill="#2E2D3D"/>
<path d="M270.742 172.899L264.67 169.391C264.189 169.102 263.356 169.134 262.827 169.439L257.172 172.739C256.643 173.044 256.611 173.524 257.092 173.813L263.164 177.322C263.645 177.61 264.478 177.578 265.006 177.273L270.662 173.973C271.191 173.669 271.223 173.188 270.742 172.899Z" fill="#2E2D3D"/>
<path d="M280.116 178.306L274.044 174.797C273.563 174.509 272.73 174.541 272.201 174.845L266.546 178.146C266.017 178.45 265.985 178.931 266.466 179.219L272.538 182.728C273.019 183.016 273.852 182.984 274.38 182.68L280.036 179.379C280.565 179.075 280.597 178.594 280.116 178.306Z" fill="#2E2D3D"/>
<path d="M289.488 183.718L283.416 180.209C282.935 179.921 282.102 179.953 281.574 180.257L275.918 183.558C275.389 183.862 275.357 184.343 275.838 184.631L281.91 188.14C282.391 188.428 283.224 188.396 283.753 188.092L289.408 184.791C289.937 184.487 289.969 184.006 289.488 183.718Z" fill="#2E2D3D"/>
<path d="M298.861 189.132L292.789 185.623C292.308 185.335 291.475 185.367 290.947 185.671L285.291 188.972C284.762 189.276 284.73 189.757 285.211 190.045L291.283 193.554C291.764 193.842 292.597 193.81 293.126 193.506L298.781 190.205C299.31 189.901 299.342 189.42 298.861 189.132Z" fill="#2E2D3D"/>
<path d="M308.234 194.53L302.162 191.022C301.682 190.733 300.848 190.765 300.32 191.07L294.664 194.37C294.135 194.675 294.103 195.155 294.584 195.444L300.656 198.952C301.137 199.241 301.97 199.209 302.499 198.904L308.154 195.604C308.683 195.299 308.715 194.819 308.234 194.53Z" fill="#2E2D3D"/>
<path d="M317.607 199.946L311.534 196.438C311.054 196.149 310.22 196.181 309.692 196.486L304.036 199.786C303.507 200.091 303.475 200.571 303.956 200.86L310.028 204.368C310.509 204.657 311.342 204.625 311.871 204.32L317.526 201.02C318.055 200.715 318.087 200.235 317.607 199.946Z" fill="#2E2D3D"/>
<path d="M229.358 158.978L223.286 155.469C222.806 155.18 221.972 155.212 221.444 155.517L215.788 158.817C215.259 159.122 215.227 159.602 215.708 159.891L221.78 163.4C222.261 163.688 223.094 163.656 223.623 163.352L229.278 160.051C229.807 159.747 229.839 159.266 229.358 158.978Z" fill="#2E2D3D"/>
<path d="M219.858 153.485L213.785 149.977C213.305 149.688 212.471 149.72 211.943 150.025L206.287 153.325C205.758 153.63 205.726 154.11 206.207 154.399L212.279 157.907C212.76 158.196 213.593 158.164 214.122 157.859L219.777 154.559C220.306 154.254 220.338 153.774 219.858 153.485Z" fill="#2E2D3D"/>
<path d="M210.324 147.984L197.25 140.438C196.769 140.149 195.936 140.181 195.408 140.486L189.752 143.786C189.223 144.091 189.191 144.571 189.672 144.86L202.746 152.406C203.226 152.694 204.059 152.662 204.588 152.358L210.244 149.057C210.773 148.753 210.805 148.272 210.324 147.984Z" fill="#2E2D3D"/>
<path d="M199.269 151.593L188.662 145.473C188.182 145.184 187.348 145.216 186.82 145.521L181.164 148.821C180.635 149.126 180.603 149.606 181.084 149.895L191.69 156.015C192.171 156.304 193.004 156.272 193.533 155.967L199.189 152.667C199.717 152.362 199.749 151.882 199.269 151.593Z" fill="#2E2D3D"/>
<path d="M238.731 164.39L232.658 160.881C232.178 160.593 231.344 160.625 230.816 160.929L225.16 164.23C224.631 164.534 224.599 165.015 225.08 165.303L231.152 168.812C231.633 169.1 232.466 169.068 232.995 168.764L238.65 165.463C239.179 165.159 239.211 164.678 238.731 164.39Z" fill="#2E2D3D"/>
<path d="M248.104 169.794L242.031 166.285C241.551 165.997 240.717 166.029 240.189 166.333L234.533 169.634C234.004 169.938 233.972 170.419 234.453 170.707L240.525 174.216C241.006 174.504 241.839 174.472 242.368 174.168L248.023 170.867C248.552 170.563 248.584 170.082 248.104 169.794Z" fill="#2E2D3D"/>
<path d="M257.477 175.206L251.404 171.697C250.924 171.409 250.091 171.441 249.562 171.745L243.906 175.046C243.377 175.35 243.345 175.831 243.826 176.119L249.898 179.628C250.379 179.917 251.212 179.885 251.741 179.58L257.397 176.28C257.925 175.975 257.957 175.495 257.477 175.206Z" fill="#2E2D3D"/>
<path d="M266.85 180.626L260.777 177.117C260.297 176.829 259.464 176.861 258.935 177.165L253.279 180.466C252.75 180.77 252.718 181.251 253.199 181.539L259.271 185.048C259.752 185.336 260.585 185.304 261.114 185L266.77 181.7C267.298 181.395 267.33 180.914 266.85 180.626Z" fill="#2E2D3D"/>
<path d="M276.223 186.024L270.15 182.516C269.67 182.227 268.837 182.259 268.308 182.564L262.652 185.864C262.123 186.169 262.091 186.649 262.572 186.938L268.644 190.447C269.125 190.735 269.958 190.703 270.487 190.398L276.143 187.098C276.671 186.794 276.703 186.313 276.223 186.024Z" fill="#2E2D3D"/>
<path d="M285.58 191.439L279.508 187.93C279.027 187.641 278.194 187.673 277.665 187.978L272.01 191.278C271.481 191.583 271.449 192.063 271.929 192.352L278.002 195.861C278.482 196.149 279.316 196.117 279.844 195.813L285.5 192.512C286.029 192.208 286.061 191.727 285.58 191.439Z" fill="#2E2D3D"/>
<path d="M294.951 196.857L288.879 193.348C288.398 193.059 287.565 193.091 287.036 193.396L281.381 196.696C280.852 197.001 280.82 197.481 281.301 197.77L287.373 201.279C287.854 201.567 288.687 201.535 289.215 201.231L294.871 197.93C295.4 197.626 295.432 197.145 294.951 196.857Z" fill="#2E2D3D"/>
<path d="M304.324 202.253L298.252 198.744C297.771 198.456 296.938 198.488 296.409 198.792L290.754 202.093C290.225 202.397 290.193 202.878 290.674 203.166L296.746 206.675C297.227 206.963 298.06 206.931 298.588 206.627L304.244 203.326C304.773 203.022 304.805 202.541 304.324 202.253Z" fill="#2E2D3D"/>
<path d="M313.697 207.667L307.625 204.158C307.144 203.87 306.311 203.902 305.782 204.206L300.127 207.507C299.598 207.811 299.566 208.292 300.047 208.58L306.119 212.089C306.6 212.378 307.433 212.345 307.962 212.041L313.617 208.741C314.146 208.436 314.178 207.955 313.697 207.667Z" fill="#2E2D3D"/>
<path d="M330.359 217.285L317.125 209.643C316.644 209.354 315.811 209.386 315.283 209.691L309.627 212.991C309.098 213.296 309.066 213.776 309.547 214.065L322.781 221.707C323.261 221.996 324.095 221.964 324.623 221.659L330.279 218.359C330.808 218.054 330.84 217.574 330.359 217.285Z" fill="#2E2D3D"/>
<path d="M313.185 227.33L302.018 220.873C301.537 220.585 300.704 220.617 300.175 220.921L294.519 224.222C293.991 224.526 293.959 225.007 294.439 225.295L305.607 231.752C306.087 232.04 306.92 232.008 307.449 231.704L313.105 228.403C313.634 228.099 313.666 227.618 313.185 227.33Z" fill="#2E2D3D"/>
<path d="M237.432 173.624L231.359 170.115C230.879 169.827 230.046 169.859 229.517 170.163L223.861 173.464C223.332 173.768 223.3 174.249 223.781 174.537L229.853 178.046C230.334 178.335 231.167 178.303 231.696 177.998L237.352 174.698C237.88 174.393 237.912 173.913 237.432 173.624Z" fill="#2E2D3D"/>
<path d="M227.836 168.064L221.764 164.555C221.283 164.266 220.45 164.298 219.921 164.603L214.265 167.903C213.737 168.208 213.705 168.688 214.185 168.977L220.258 172.486C220.738 172.774 221.571 172.742 222.1 172.438L227.756 169.137C228.285 168.833 228.317 168.352 227.836 168.064Z" fill="#2E2D3D"/>
<path d="M218.224 162.519L212.151 159.01C211.671 158.721 210.838 158.753 210.309 159.058L204.653 162.358C204.124 162.663 204.092 163.144 204.573 163.432L210.645 166.941C211.126 167.229 211.959 167.197 212.488 166.893L218.144 163.592C218.672 163.288 218.704 162.807 218.224 162.519Z" fill="#2E2D3D"/>
<path d="M208.625 156.978L202.553 153.469C202.072 153.18 201.239 153.212 200.71 153.517L195.055 156.817C194.526 157.122 194.494 157.602 194.974 157.891L201.047 161.4C201.527 161.688 202.36 161.656 202.889 161.352L208.545 158.051C209.074 157.747 209.106 157.266 208.625 156.978Z" fill="#2E2D3D"/>
<path d="M246.807 179.023L240.734 175.514C240.254 175.225 239.421 175.257 238.892 175.562L233.236 178.862C232.707 179.167 232.675 179.647 233.156 179.936L239.228 183.445C239.709 183.733 240.542 183.701 241.071 183.397L246.727 180.096C247.255 179.792 247.287 179.311 246.807 179.023Z" fill="#2E2D3D"/>
<path d="M256.18 184.439L250.107 180.93C249.627 180.641 248.794 180.673 248.265 180.978L242.609 184.278C242.08 184.583 242.048 185.063 242.529 185.352L248.601 188.861C249.082 189.149 249.915 189.117 250.444 188.813L256.1 185.512C256.628 185.208 256.66 184.727 256.18 184.439Z" fill="#2E2D3D"/>
<path d="M265.552 189.853L259.48 186.344C258.999 186.055 258.166 186.087 257.637 186.392L251.981 189.692C251.453 189.997 251.421 190.477 251.901 190.766L257.973 194.275C258.454 194.563 259.287 194.531 259.816 194.227L265.472 190.926C266 190.622 266.032 190.141 265.552 189.853Z" fill="#2E2D3D"/>
<path d="M274.908 195.253L268.836 191.744C268.355 191.456 267.522 191.488 266.993 191.792L261.338 195.093C260.809 195.397 260.777 195.878 261.258 196.166L267.33 199.675C267.811 199.963 268.644 199.931 269.172 199.627L274.828 196.326C275.357 196.022 275.389 195.541 274.908 195.253Z" fill="#2E2D3D"/>
<path d="M284.281 200.665L278.209 197.156C277.728 196.868 276.895 196.9 276.367 197.204L270.711 200.505C270.182 200.809 270.15 201.29 270.631 201.578L276.703 205.087C277.184 205.376 278.017 205.344 278.545 205.039L284.201 201.739C284.73 201.434 284.762 200.954 284.281 200.665Z" fill="#2E2D3D"/>
<path d="M293.654 206.085L287.582 202.576C287.101 202.288 286.268 202.32 285.74 202.624L280.084 205.925C279.555 206.229 279.523 206.71 280.004 206.998L286.076 210.507C286.557 210.795 287.39 210.763 287.919 210.459L293.574 207.159C294.103 206.854 294.135 206.373 293.654 206.085Z" fill="#2E2D3D"/>
<path d="M303.027 211.483L296.955 207.975C296.474 207.686 295.641 207.718 295.113 208.023L289.457 211.323C288.928 211.628 288.896 212.108 289.377 212.397L295.449 215.906C295.93 216.194 296.763 216.162 297.292 215.857L302.947 212.557C303.476 212.253 303.508 211.772 303.027 211.483Z" fill="#2E2D3D"/>
<path d="M312.4 216.899L306.328 213.391C305.847 213.102 305.014 213.134 304.486 213.439L298.83 216.739C298.301 217.044 298.269 217.524 298.75 217.813L304.822 221.322C305.303 221.61 306.136 221.578 306.665 221.273L312.32 217.973C312.849 217.669 312.881 217.188 312.4 216.899Z" fill="#2E2D3D"/>
<path d="M321.773 222.312L315.7 218.803C315.22 218.514 314.386 218.546 313.858 218.851L308.202 222.151C307.673 222.456 307.641 222.936 308.122 223.225L314.194 226.734C314.675 227.022 315.508 226.99 316.037 226.686L321.692 223.385C322.221 223.081 322.253 222.6 321.773 222.312Z" fill="#2E2D3D"/>
<path d="M214.795 170.513L208.723 167.004C208.242 166.716 207.409 166.748 206.88 167.052L201.224 170.353C200.696 170.657 200.664 171.138 201.144 171.426L207.217 174.935C207.697 175.223 208.53 175.191 209.059 174.887L214.715 171.586C215.244 171.282 215.276 170.801 214.795 170.513Z" fill="#2E2D3D"/>
<path d="M205.469 165.132L199.396 161.623C198.916 161.335 198.083 161.367 197.554 161.671L191.898 164.972C191.37 165.276 191.337 165.757 191.818 166.045L197.89 169.554C198.371 169.842 199.204 169.81 199.733 169.506L205.389 166.205C205.917 165.901 205.949 165.42 205.469 165.132Z" fill="#2E2D3D"/>
<path d="M196.145 159.749L190.072 156.24C189.592 155.952 188.758 155.984 188.23 156.288L182.574 159.589C182.045 159.893 182.013 160.374 182.494 160.662L188.566 164.171C189.047 164.46 189.88 164.428 190.409 164.123L196.065 160.823C196.593 160.518 196.625 160.038 196.145 159.749Z" fill="#2E2D3D"/>
<path d="M186.82 154.362L180.748 150.854C180.267 150.565 179.434 150.597 178.906 150.902L173.25 154.202C172.721 154.507 172.689 154.987 173.17 155.276L179.242 158.784C179.723 159.073 180.556 159.041 181.085 158.736L186.74 155.436C187.269 155.131 187.301 154.651 186.82 154.362Z" fill="#2E2D3D"/>
<path d="M177.783 159.638L171.711 156.129C171.23 155.841 170.397 155.873 169.869 156.177L167.994 157.267C167.465 157.571 167.433 158.052 167.914 158.34L173.986 161.849C174.467 162.137 175.3 162.105 175.829 161.801L177.703 160.711C178.232 160.407 178.264 159.926 177.783 159.638Z" fill="#2E2D3D"/>
<path d="M189.961 166.671L183.889 163.162C183.408 162.874 182.575 162.906 182.046 163.21L180.172 164.3C179.643 164.604 179.611 165.085 180.092 165.373L186.164 168.882C186.645 169.17 187.478 169.138 188.006 168.834L189.881 167.744C190.41 167.44 190.442 166.959 189.961 166.671Z" fill="#2E2D3D"/>
<path d="M199.236 172.038L193.164 168.529C192.684 168.241 191.85 168.273 191.322 168.577L189.447 169.667C188.918 169.971 188.886 170.452 189.367 170.74L195.439 174.249C195.92 174.538 196.753 174.506 197.282 174.201L199.156 173.112C199.685 172.807 199.717 172.327 199.236 172.038Z" fill="#2E2D3D"/>
<path d="M208.529 177.392L202.457 173.883C201.976 173.594 201.143 173.627 200.615 173.931L198.74 175.02C198.211 175.325 198.179 175.806 198.66 176.094L204.732 179.603C205.213 179.891 206.046 179.859 206.575 179.555L208.449 178.465C208.978 178.161 209.01 177.68 208.529 177.392Z" fill="#2E2D3D"/>
<path d="M217.807 182.755L211.734 179.246C211.254 178.958 210.421 178.99 209.892 179.294L208.017 180.384C207.489 180.688 207.457 181.169 207.937 181.457L214.01 184.966C214.49 185.254 215.323 185.222 215.852 184.918L217.727 183.828C218.255 183.524 218.287 183.043 217.807 182.755Z" fill="#2E2D3D"/>
<path d="M269.653 212.687L263.581 209.178C263.101 208.889 262.267 208.921 261.739 209.226L259.864 210.315C259.335 210.62 259.303 211.1 259.784 211.389L265.856 214.898C266.337 215.186 267.17 215.154 267.699 214.85L269.573 213.76C270.102 213.456 270.134 212.975 269.653 212.687Z" fill="#2E2D3D"/>
<path d="M278.93 218.036L272.858 214.527C272.377 214.239 271.544 214.271 271.015 214.575L269.14 215.665C268.612 215.969 268.58 216.45 269.06 216.738L275.133 220.247C275.613 220.536 276.446 220.504 276.975 220.199L278.85 219.11C279.378 218.805 279.411 218.325 278.93 218.036Z" fill="#2E2D3D"/>
<path d="M288.223 223.399L282.15 219.891C281.67 219.602 280.837 219.634 280.308 219.939L278.433 221.028C277.905 221.333 277.873 221.813 278.353 222.102L284.426 225.611C284.906 225.899 285.739 225.867 286.268 225.562L288.143 224.473C288.671 224.169 288.703 223.688 288.223 223.399Z" fill="#2E2D3D"/>
<path d="M297.499 228.749L291.427 225.24C290.946 224.952 290.113 224.984 289.584 225.288L287.71 226.378C287.181 226.682 287.149 227.163 287.63 227.451L293.702 230.96C294.183 231.249 295.016 231.216 295.545 230.912L297.419 229.823C297.948 229.518 297.98 229.037 297.499 228.749Z" fill="#2E2D3D"/>
<path d="M224.151 175.931L218.079 172.422C217.598 172.134 216.765 172.166 216.237 172.47L210.581 175.771C210.052 176.075 210.02 176.556 210.501 176.844L216.573 180.353C217.054 180.641 217.887 180.609 218.416 180.305L224.071 177.004C224.6 176.7 224.632 176.219 224.151 175.931Z" fill="#2E2D3D"/>
<path d="M233.525 181.349L227.452 177.84C226.972 177.552 226.138 177.584 225.61 177.888L219.954 181.189C219.425 181.493 219.393 181.974 219.874 182.262L225.946 185.771C226.427 186.059 227.26 186.027 227.789 185.723L233.444 182.422C233.973 182.118 234.005 181.637 233.525 181.349Z" fill="#2E2D3D"/>
<path d="M242.897 186.747L236.824 183.238C236.344 182.95 235.51 182.982 234.982 183.286L229.326 186.587C228.797 186.891 228.765 187.372 229.246 187.66L235.318 191.169C235.799 191.458 236.632 191.426 237.161 191.121L242.816 187.821C243.345 187.516 243.377 187.036 242.897 186.747Z" fill="#2E2D3D"/>
<path d="M252.27 192.157L246.197 188.649C245.717 188.36 244.883 188.392 244.355 188.697L238.699 191.997C238.17 192.302 238.138 192.782 238.619 193.071L244.691 196.579C245.172 196.868 246.005 196.836 246.534 196.531L252.19 193.231C252.718 192.926 252.75 192.446 252.27 192.157Z" fill="#2E2D3D"/>
<path d="M261.642 197.575L255.569 194.066C255.089 193.778 254.256 193.81 253.727 194.115L248.071 197.415C247.542 197.719 247.51 198.2 247.991 198.489L254.063 201.997C254.544 202.286 255.377 202.254 255.906 201.949L261.562 198.649C262.09 198.344 262.122 197.864 261.642 197.575Z" fill="#2E2D3D"/>
<path d="M271.016 202.97L264.943 199.461C264.463 199.173 263.63 199.205 263.101 199.509L257.445 202.81C256.916 203.114 256.884 203.595 257.365 203.883L263.437 207.392C263.918 207.68 264.751 207.648 265.28 207.344L270.936 204.043C271.464 203.739 271.496 203.258 271.016 202.97Z" fill="#2E2D3D"/>
<path d="M280.387 208.39L274.314 204.881C273.834 204.593 273.001 204.625 272.472 204.929L266.816 208.23C266.288 208.534 266.255 209.015 266.736 209.303L272.808 212.812C273.289 213.1 274.122 213.068 274.651 212.764L280.307 209.463C280.835 209.159 280.867 208.678 280.387 208.39Z" fill="#2E2D3D"/>
<path d="M289.745 213.808L283.673 210.299C283.192 210.01 282.359 210.043 281.83 210.347L276.175 213.647C275.646 213.952 275.614 214.433 276.095 214.721L282.167 218.23C282.647 218.518 283.481 218.486 284.009 218.182L289.665 214.881C290.194 214.577 290.226 214.096 289.745 213.808Z" fill="#2E2D3D"/>
<path d="M299.117 219.206L293.045 215.697C292.564 215.409 291.731 215.441 291.202 215.745L285.547 219.046C285.018 219.35 284.986 219.831 285.467 220.119L291.539 223.628C292.02 223.917 292.853 223.885 293.381 223.58L299.037 220.28C299.566 219.975 299.598 219.495 299.117 219.206Z" fill="#2E2D3D"/>
<path d="M223.719 145.744L205.855 135.426C205.374 135.137 204.541 135.169 204.012 135.474L198.356 138.774C197.828 139.079 197.796 139.56 198.276 139.848L216.141 150.166C216.621 150.454 217.454 150.422 217.983 150.118L223.639 146.817C224.168 146.513 224.2 146.032 223.719 145.744Z" fill="#2E2D3D"/>
<path d="M338.835 212.203L320.971 201.885C320.49 201.596 319.657 201.628 319.128 201.933L313.472 205.233C312.944 205.538 312.912 206.018 313.392 206.307L331.257 216.625C331.737 216.913 332.571 216.881 333.099 216.577L338.755 213.276C339.284 212.972 339.316 212.491 338.835 212.203Z" fill="#2E2D3D"/>
<path d="M321.452 190.849L315.38 187.34C314.899 187.052 314.066 187.084 313.537 187.388L306.792 191.329C306.263 191.634 306.231 192.114 306.712 192.403L312.784 195.912C313.265 196.2 314.098 196.168 314.627 195.864L321.372 191.922C321.9 191.618 321.933 191.137 321.452 190.849Z" fill="#2E2D3D"/>
<path d="M253.406 151.561L243.697 145.953C243.216 145.665 242.383 145.697 241.854 146.001L235.109 149.943C234.58 150.247 234.548 150.728 235.029 151.016L244.738 156.624C245.219 156.912 246.052 156.88 246.581 156.576L253.326 152.634C253.855 152.33 253.887 151.849 253.406 151.561Z" fill="#2E2D3D"/>
<path d="M312.432 185.639L302.722 180.031C302.242 179.743 301.409 179.775 300.88 180.079L294.135 184.021C293.606 184.325 293.574 184.806 294.054 185.094L303.764 190.702C304.244 190.99 305.078 190.958 305.606 190.654L312.351 186.712C312.88 186.408 312.912 185.927 312.432 185.639Z" fill="#2E2D3D"/>
<path d="M266.93 159.362L257.22 153.754C256.74 153.466 255.907 153.498 255.378 153.802L248.633 157.743C248.104 158.048 248.072 158.529 248.553 158.817L258.262 164.425C258.742 164.713 259.576 164.681 260.104 164.377L266.85 160.435C267.378 160.131 267.41 159.65 266.93 159.362Z" fill="#2E2D3D"/>
<path d="M248.633 158.866L290.819 183.219C291.347 183.523 292.164 183.539 292.661 183.251L299.534 179.23C300.031 178.941 299.999 178.461 299.486 178.156L257.301 153.803L248.633 158.866Z" fill="#2E2D3D"/>
<path d="M329.271 200.392L336.032 204.301C336.432 204.526 337.105 204.51 337.538 204.253L340.294 202.635C340.726 202.379 340.758 201.994 340.358 201.754L333.597 197.845C333.196 197.62 332.523 197.636 332.091 197.893L329.335 199.511C328.902 199.767 328.87 200.152 329.271 200.392Z" fill="#2E2D3D"/>
<path d="M319.897 194.976L326.658 198.885C327.058 199.11 327.731 199.094 328.164 198.837L330.92 197.219C331.352 196.963 331.384 196.578 330.984 196.338L324.223 192.429C323.822 192.204 323.149 192.22 322.717 192.477L319.961 194.095C319.528 194.351 319.496 194.736 319.897 194.976Z" fill="#2E2D3D"/>
<path d="M324.401 203.246L331.162 207.155C331.562 207.379 332.235 207.363 332.668 207.107L335.424 205.489C335.856 205.232 335.888 204.848 335.488 204.607L328.726 200.698C328.326 200.474 327.653 200.49 327.22 200.746L324.465 202.364C324.032 202.621 324 203.005 324.401 203.246Z" fill="#2E2D3D"/>
</g>
</g>
</g>
<g opacity="0.8">
<path d="M89.5996 208.62L83.5914 205.143C83.1107 204.871 83.1748 204.374 83.7196 204.053L90.8173 199.952C91.3781 199.631 92.2112 199.599 92.6918 199.872L98.7 203.348C99.1807 203.621 99.1166 204.118 98.5719 204.438L91.4742 208.54C90.9134 208.86 90.0803 208.892 89.5996 208.62Z" fill="#2E2D3D"/>
<path d="M98.876 213.989L92.8678 210.512C92.3871 210.24 92.4512 209.743 92.9959 209.423L100.094 205.321C100.654 205.001 101.488 204.969 101.968 205.241L107.976 208.718C108.457 208.99 108.393 209.487 107.848 209.807L100.751 213.909C100.19 214.229 99.3566 214.261 98.876 213.989Z" fill="#2E2D3D"/>
<path d="M108.152 219.342L102.144 215.866C101.663 215.593 101.728 215.097 102.272 214.776L109.37 210.675C109.931 210.354 110.764 210.322 111.245 210.594L117.253 214.071C117.733 214.344 117.669 214.84 117.125 215.161L110.027 219.262C109.466 219.583 108.633 219.615 108.152 219.342Z" fill="#2E2D3D"/>
<path d="M121.002 214.918L114.994 211.441C114.513 211.169 114.577 210.672 115.122 210.352L121.082 206.907C121.643 206.586 122.476 206.554 122.957 206.827L128.965 210.304C129.446 210.576 129.381 211.073 128.837 211.393L122.877 214.838C122.316 215.158 121.483 215.19 121.002 214.918Z" fill="#2E2D3D"/>
<path d="M130.278 220.269L124.27 216.793C123.789 216.52 123.854 216.024 124.398 215.703L130.358 212.258C130.919 211.938 131.752 211.906 132.233 212.178L138.241 215.655C138.722 215.928 138.658 216.424 138.113 216.745L132.153 220.189C131.592 220.51 130.759 220.542 130.278 220.269Z" fill="#2E2D3D"/>
<path d="M139.555 225.633L133.546 222.156C133.066 221.884 133.13 221.387 133.675 221.067L139.635 217.622C140.196 217.301 141.029 217.269 141.509 217.542L147.518 221.018C147.998 221.291 147.934 221.787 147.389 222.108L141.429 225.553C140.868 225.873 140.035 225.905 139.539 225.633H139.555Z" fill="#2E2D3D"/>
<path d="M148.832 230.988L142.824 227.511C142.343 227.239 142.407 226.742 142.952 226.422L148.912 222.977C149.473 222.657 150.306 222.625 150.787 222.897L156.795 226.374C157.276 226.646 157.212 227.143 156.667 227.463L150.707 230.908C150.146 231.229 149.313 231.261 148.832 230.988Z" fill="#2E2D3D"/>
<path d="M158.109 236.34L152.101 232.863C151.621 232.591 151.685 232.094 152.229 231.774L158.189 228.329C158.75 228.008 159.583 227.976 160.064 228.249L166.072 231.725C166.553 231.998 166.489 232.494 165.944 232.815L159.984 236.26C159.423 236.58 158.59 236.612 158.109 236.34Z" fill="#2E2D3D"/>
<path d="M167.401 241.705L161.393 238.228C160.912 237.956 160.977 237.459 161.521 237.139L167.481 233.694C168.042 233.374 168.875 233.342 169.356 233.614L175.364 237.091C175.845 237.363 175.781 237.86 175.236 238.18L169.276 241.625C168.715 241.945 167.882 241.977 167.401 241.705Z" fill="#2E2D3D"/>
<path d="M176.679 247.059L170.671 243.582C170.19 243.309 170.254 242.813 170.799 242.492L176.759 239.048C177.32 238.727 178.153 238.695 178.633 238.967L184.642 242.444C185.122 242.717 185.058 243.213 184.513 243.534L178.553 246.978C177.992 247.299 177.159 247.331 176.679 247.059Z" fill="#2E2D3D"/>
<path d="M185.954 252.428L179.946 248.951C179.465 248.679 179.529 248.182 180.074 247.861L186.034 244.417C186.595 244.096 187.428 244.064 187.909 244.337L193.917 247.813C194.398 248.086 194.334 248.582 193.789 248.903L187.829 252.348C187.268 252.668 186.435 252.7 185.954 252.428Z" fill="#2E2D3D"/>
<path d="M195.231 257.775L189.223 254.299C188.743 254.026 188.807 253.53 189.351 253.209L195.312 249.764C195.872 249.444 196.705 249.412 197.186 249.684L203.194 253.161C203.675 253.433 203.611 253.93 203.066 254.25L197.106 257.695C196.545 258.016 195.712 258.048 195.231 257.775Z" fill="#2E2D3D"/>
<path d="M204.524 263.131L198.516 259.654C198.036 259.382 198.1 258.885 198.644 258.565L204.605 255.12C205.165 254.799 205.998 254.767 206.479 255.04L212.487 258.516C212.968 258.789 212.904 259.286 212.359 259.606L206.399 263.051C205.838 263.371 205.005 263.403 204.524 263.131Z" fill="#2E2D3D"/>
<path d="M134.669 212.369L128.661 208.892C128.18 208.62 128.244 208.123 128.789 207.803L134.749 204.358C135.31 204.038 136.143 204.006 136.624 204.278L142.632 207.755C143.113 208.027 143.048 208.524 142.504 208.844L136.544 212.289C135.983 212.609 135.15 212.641 134.669 212.369Z" fill="#2E2D3D"/>
<path d="M125.248 206.943L119.24 203.467C118.759 203.194 118.823 202.697 119.368 202.377L125.328 198.932C125.889 198.612 126.722 198.58 127.203 198.852L133.211 202.329C133.692 202.601 133.628 203.098 133.083 203.418L127.123 206.863C126.562 207.184 125.729 207.216 125.248 206.943Z" fill="#2E2D3D"/>
<path d="M115.811 201.487L102.865 194.021C102.384 193.749 102.448 193.252 102.993 192.932L108.953 189.487C109.514 189.167 110.347 189.135 110.828 189.407L123.773 196.873C124.254 197.145 124.19 197.642 123.645 197.963L117.685 201.407C117.124 201.728 116.291 201.76 115.811 201.487Z" fill="#2E2D3D"/>
<path d="M122.412 194.878L111.902 188.822C111.421 188.55 111.485 188.053 112.03 187.732L117.99 184.288C118.551 183.967 119.384 183.935 119.865 184.208L130.375 190.264C130.856 190.536 130.792 191.033 130.247 191.353L124.287 194.798C123.726 195.119 122.893 195.151 122.412 194.878Z" fill="#2E2D3D"/>
<path d="M143.945 217.742L137.937 214.265C137.456 213.993 137.521 213.496 138.065 213.176L144.025 209.731C144.586 209.411 145.419 209.379 145.9 209.651L151.908 213.128C152.389 213.4 152.325 213.897 151.78 214.217L145.82 217.662C145.259 217.982 144.426 218.014 143.945 217.742Z" fill="#2E2D3D"/>
<path d="M153.223 223.09L147.214 219.613C146.734 219.341 146.798 218.844 147.343 218.524L153.303 215.079C153.864 214.758 154.697 214.726 155.177 214.999L161.186 218.475C161.666 218.748 161.602 219.245 161.057 219.565L155.097 223.01C154.536 223.33 153.703 223.362 153.223 223.09Z" fill="#2E2D3D"/>
<path d="M162.515 228.455L156.506 224.978C156.026 224.706 156.09 224.209 156.635 223.889L162.595 220.444C163.156 220.124 163.989 220.092 164.469 220.364L170.478 223.841C170.958 224.113 170.894 224.61 170.349 224.93L164.389 228.375C163.828 228.695 162.995 228.727 162.515 228.455Z" fill="#2E2D3D"/>
<path d="M171.792 233.81L165.784 230.334C165.303 230.061 165.367 229.565 165.912 229.244L171.872 225.8C172.433 225.479 173.266 225.447 173.747 225.719L179.755 229.196C180.236 229.469 180.171 229.965 179.627 230.286L173.667 233.73C173.106 234.051 172.273 234.083 171.792 233.81Z" fill="#2E2D3D"/>
<path d="M181.068 239.172L175.06 235.695C174.579 235.423 174.644 234.926 175.188 234.606L181.148 231.161C181.709 230.84 182.542 230.808 183.023 231.081L189.031 234.557C189.512 234.83 189.448 235.327 188.903 235.647L182.943 239.092C182.382 239.412 181.549 239.444 181.068 239.172Z" fill="#2E2D3D"/>
<path d="M190.345 244.525L184.337 241.049C183.856 240.776 183.92 240.279 184.465 239.959L190.425 236.514C190.986 236.194 191.819 236.162 192.299 236.434L198.308 239.911C198.788 240.183 198.724 240.68 198.179 241L192.219 244.445C191.659 244.766 190.825 244.798 190.345 244.525Z" fill="#2E2D3D"/>
<path d="M199.638 249.873L193.629 246.396C193.149 246.124 193.213 245.627 193.758 245.307L199.718 241.862C200.279 241.542 201.112 241.51 201.592 241.782L207.601 245.259C208.081 245.531 208.017 246.028 207.472 246.348L201.512 249.793C200.952 250.113 200.118 250.145 199.638 249.873Z" fill="#2E2D3D"/>
<path d="M208.914 255.246L202.906 251.769C202.425 251.497 202.489 251 203.034 250.68L208.994 247.235C209.555 246.915 210.388 246.883 210.869 247.155L216.877 250.632C217.358 250.904 217.294 251.401 216.749 251.721L210.789 255.166C210.228 255.486 209.395 255.518 208.914 255.246Z" fill="#2E2D3D"/>
<path d="M218.191 260.596L212.183 257.119C211.703 256.846 211.767 256.35 212.311 256.029L218.272 252.585C218.832 252.264 219.665 252.232 220.146 252.505L226.154 255.981C226.635 256.254 226.571 256.75 226.026 257.071L220.066 260.516C219.505 260.836 218.672 260.868 218.191 260.596Z" fill="#2E2D3D"/>
<path d="M234.693 270.13L221.587 262.568C221.107 262.296 221.171 261.799 221.716 261.479L227.676 258.034C228.237 257.713 229.07 257.681 229.55 257.954L242.656 265.516C243.137 265.788 243.073 266.285 242.528 266.606L236.568 270.05C236.007 270.371 235.174 270.403 234.693 270.13Z" fill="#2E2D3D"/>
<path d="M252.75 259.701L241.679 253.308C241.199 253.036 241.263 252.539 241.807 252.219L247.768 248.774C248.328 248.454 249.162 248.422 249.642 248.694L260.713 255.087C261.194 255.359 261.13 255.856 260.585 256.176L254.625 259.621C254.064 259.941 253.231 259.973 252.75 259.701Z" fill="#2E2D3D"/>
<path d="M160.209 216.682L154.201 213.205C153.72 212.932 153.784 212.436 154.329 212.115L160.289 208.671C160.85 208.35 161.683 208.318 162.164 208.59L168.172 212.067C168.653 212.34 168.588 212.836 168.044 213.157L162.084 216.601C161.523 216.922 160.69 216.954 160.209 216.682Z" fill="#2E2D3D"/>
<path d="M150.69 211.201L144.682 207.724C144.202 207.452 144.266 206.955 144.81 206.635L150.771 203.19C151.331 202.87 152.164 202.838 152.645 203.11L158.653 206.587C159.134 206.859 159.07 207.356 158.525 207.676L152.565 211.121C152.004 211.441 151.171 211.473 150.69 211.201Z" fill="#2E2D3D"/>
<path d="M141.174 205.705L135.166 202.228C134.685 201.956 134.749 201.459 135.294 201.139L141.254 197.694C141.815 197.374 142.648 197.342 143.129 197.614L149.137 201.091C149.617 201.363 149.553 201.86 149.009 202.18L143.048 205.625C142.488 205.945 141.654 205.977 141.174 205.705Z" fill="#2E2D3D"/>
<path d="M131.673 200.207L125.665 196.73C125.184 196.458 125.248 195.961 125.793 195.641L131.753 192.196C132.314 191.876 133.147 191.844 133.628 192.116L139.636 195.593C140.116 195.865 140.052 196.362 139.508 196.682L133.547 200.127C132.987 200.447 132.154 200.479 131.673 200.207Z" fill="#2E2D3D"/>
<path d="M169.484 222.047L163.476 218.57C162.996 218.298 163.06 217.801 163.604 217.481L169.564 214.036C170.125 213.715 170.958 213.683 171.439 213.956L177.447 217.432C177.928 217.705 177.864 218.202 177.319 218.522L171.359 221.967C170.798 222.287 169.965 222.319 169.484 222.047Z" fill="#2E2D3D"/>
<path d="M178.762 227.398L172.753 223.922C172.273 223.649 172.337 223.153 172.882 222.832L178.842 219.387C179.403 219.067 180.236 219.035 180.716 219.307L186.725 222.784C187.205 223.056 187.141 223.553 186.596 223.874L180.636 227.318C180.076 227.639 179.242 227.671 178.762 227.398Z" fill="#2E2D3D"/>
<path d="M188.037 232.762L182.029 229.285C181.548 229.012 181.612 228.516 182.157 228.195L188.117 224.751C188.678 224.43 189.511 224.398 189.992 224.671L196 228.147C196.481 228.42 196.417 228.916 195.872 229.237L189.912 232.682C189.351 233.002 188.518 233.034 188.037 232.762Z" fill="#2E2D3D"/>
<path d="M197.314 238.117L191.306 234.64C190.826 234.368 190.89 233.871 191.434 233.551L197.395 230.106C197.955 229.786 198.788 229.754 199.269 230.026L205.277 233.503C205.758 233.775 205.694 234.272 205.149 234.592L199.189 238.037C198.628 238.357 197.795 238.389 197.314 238.117Z" fill="#2E2D3D"/>
<path d="M206.607 243.469L200.599 239.992C200.119 239.72 200.183 239.223 200.727 238.902L206.688 235.458C207.248 235.137 208.081 235.105 208.562 235.378L214.57 238.854C215.051 239.127 214.987 239.623 214.442 239.944L208.482 243.389C207.921 243.709 207.088 243.741 206.607 243.469Z" fill="#2E2D3D"/>
<path d="M215.885 248.836L209.877 245.359C209.396 245.087 209.46 244.59 210.005 244.27L215.965 240.825C216.526 240.504 217.359 240.472 217.839 240.745L223.848 244.222C224.328 244.494 224.264 244.991 223.719 245.311L217.759 248.756C217.199 249.076 216.365 249.108 215.885 248.836Z" fill="#2E2D3D"/>
<path d="M225.16 254.187L219.152 250.711C218.671 250.438 218.735 249.942 219.28 249.621L225.24 246.176C225.801 245.856 226.634 245.824 227.115 246.096L233.123 249.573C233.604 249.845 233.54 250.342 232.995 250.663L227.035 254.107C226.474 254.428 225.641 254.46 225.16 254.187Z" fill="#2E2D3D"/>
<path d="M234.437 259.559L228.429 256.082C227.949 255.809 228.013 255.313 228.557 254.992L234.518 251.548C235.078 251.227 235.912 251.195 236.392 251.467L242.4 254.944C242.881 255.217 242.817 255.713 242.272 256.034L236.312 259.478C235.751 259.799 234.918 259.831 234.437 259.559Z" fill="#2E2D3D"/>
<path d="M243.73 264.904L237.721 261.427C237.241 261.155 237.305 260.658 237.849 260.338L243.81 256.893C244.37 256.573 245.204 256.541 245.684 256.813L251.692 260.29C252.173 260.562 252.109 261.059 251.564 261.379L245.604 264.824C245.043 265.145 244.21 265.177 243.73 264.904Z" fill="#2E2D3D"/>
<path d="M155.32 203.43L149.312 199.953C148.831 199.68 148.896 199.184 149.44 198.863L155.4 195.419C155.961 195.098 156.794 195.066 157.275 195.339L163.283 198.815C163.764 199.088 163.7 199.584 163.155 199.905L157.195 203.349C156.634 203.67 155.801 203.702 155.32 203.43Z" fill="#2E2D3D"/>
<path d="M146.076 198.113L140.068 194.636C139.587 194.364 139.651 193.867 140.196 193.547L146.156 190.102C146.717 189.782 147.55 189.75 148.031 190.022L154.039 193.499C154.52 193.771 154.456 194.268 153.911 194.588L147.951 198.033C147.39 198.354 146.557 198.386 146.076 198.113Z" fill="#2E2D3D"/>
<path d="M136.848 192.775L130.839 189.299C130.359 189.026 130.423 188.529 130.968 188.209L136.928 184.764C137.489 184.444 138.322 184.412 138.802 184.684L144.811 188.161C145.291 188.433 145.227 188.93 144.682 189.25L138.722 192.695C138.161 193.016 137.328 193.048 136.848 192.775Z" fill="#2E2D3D"/>
<path d="M127.619 187.443L121.611 183.967C121.13 183.694 121.194 183.197 121.739 182.877L127.699 179.432C128.26 179.112 129.093 179.08 129.574 179.352L135.582 182.829C136.063 183.101 135.999 183.598 135.454 183.918L129.494 187.363C128.933 187.684 128.1 187.716 127.619 187.443Z" fill="#2E2D3D"/>
<path d="M137.104 181.96L131.095 178.484C130.615 178.211 130.679 177.715 131.223 177.394L133.194 176.257C133.755 175.936 134.588 175.904 135.069 176.176L141.077 179.653C141.558 179.926 141.494 180.422 140.949 180.743L138.978 181.88C138.417 182.201 137.584 182.233 137.104 181.96Z" fill="#2E2D3D"/>
<path d="M149.152 188.917L143.144 185.441C142.663 185.168 142.728 184.672 143.272 184.351L145.243 183.214C145.804 182.893 146.637 182.861 147.118 183.133L153.126 186.61C153.606 186.883 153.542 187.379 152.998 187.7L151.027 188.837C150.466 189.158 149.633 189.19 149.152 188.917Z" fill="#2E2D3D"/>
<path d="M158.35 194.22L152.341 190.743C151.861 190.471 151.925 189.974 152.47 189.654L154.44 188.516C155.001 188.196 155.834 188.164 156.315 188.436L162.323 191.913C162.804 192.185 162.74 192.682 162.195 193.002L160.224 194.14C159.663 194.46 158.83 194.492 158.35 194.22Z" fill="#2E2D3D"/>
<path d="M167.545 199.538L161.537 196.062C161.056 195.789 161.12 195.293 161.665 194.972L163.636 193.835C164.196 193.514 165.029 193.482 165.51 193.755L171.518 197.231C171.999 197.504 171.935 198 171.39 198.321L169.42 199.458C168.859 199.779 168.026 199.811 167.545 199.538Z" fill="#2E2D3D"/>
<path d="M176.742 204.837L170.734 201.361C170.253 201.088 170.317 200.591 170.862 200.271L172.833 199.133C173.394 198.813 174.227 198.781 174.707 199.053L180.716 202.53C181.196 202.803 181.132 203.299 180.587 203.62L178.617 204.757C178.056 205.078 177.223 205.11 176.742 204.837Z" fill="#2E2D3D"/>
<path d="M228.076 234.48L222.068 231.003C221.587 230.731 221.651 230.234 222.196 229.914L224.167 228.776C224.728 228.456 225.561 228.424 226.041 228.696L232.05 232.173C232.53 232.445 232.466 232.942 231.921 233.262L229.951 234.4C229.39 234.72 228.557 234.752 228.076 234.48Z" fill="#2E2D3D"/>
<path d="M237.273 239.783L231.265 236.306C230.785 236.033 230.849 235.537 231.393 235.216L233.364 234.079C233.925 233.758 234.758 233.726 235.239 233.999L241.247 237.475C241.728 237.748 241.663 238.245 241.119 238.565L239.148 239.702C238.587 240.023 237.754 240.055 237.273 239.783Z" fill="#2E2D3D"/>
<path d="M246.471 245.105L240.462 241.628C239.982 241.356 240.046 240.859 240.591 240.539L242.561 239.401C243.122 239.081 243.955 239.049 244.436 239.321L250.444 242.798C250.925 243.07 250.861 243.567 250.316 243.887L248.345 245.025C247.785 245.345 246.951 245.377 246.471 245.105Z" fill="#2E2D3D"/>
<path d="M255.666 250.404L249.658 246.927C249.177 246.655 249.241 246.158 249.786 245.837L251.757 244.7C252.317 244.379 253.151 244.347 253.631 244.62L259.639 248.097C260.12 248.369 260.056 248.866 259.511 249.186L257.541 250.324C256.98 250.644 256.147 250.676 255.666 250.404Z" fill="#2E2D3D"/>
<path d="M164.598 208.801L158.589 205.324C158.109 205.052 158.173 204.555 158.718 204.234L164.678 200.79C165.239 200.469 166.072 200.437 166.552 200.71L172.561 204.186C173.041 204.459 172.977 204.955 172.432 205.276L166.472 208.721C165.911 209.041 165.078 209.073 164.598 208.801Z" fill="#2E2D3D"/>
<path d="M173.875 214.148L167.867 210.672C167.386 210.399 167.45 209.903 167.995 209.582L173.955 206.137C174.516 205.817 175.349 205.785 175.83 206.057L181.838 209.534C182.319 209.806 182.254 210.303 181.71 210.624L175.75 214.068C175.189 214.389 174.356 214.421 173.875 214.148Z" fill="#2E2D3D"/>
<path d="M183.151 219.514L177.143 216.037C176.662 215.764 176.727 215.268 177.271 214.947L183.231 211.503C183.792 211.182 184.625 211.15 185.106 211.423L191.114 214.899C191.595 215.172 191.531 215.668 190.986 215.989L185.026 219.433C184.465 219.754 183.632 219.786 183.151 219.514Z" fill="#2E2D3D"/>
<path d="M192.428 224.867L186.42 221.39C185.939 221.118 186.003 220.621 186.548 220.301L192.508 216.856C193.069 216.536 193.902 216.504 194.382 216.776L200.391 220.253C200.871 220.525 200.807 221.022 200.262 221.342L194.302 224.787C193.742 225.107 192.908 225.139 192.428 224.867Z" fill="#2E2D3D"/>
<path d="M201.721 230.219L195.712 226.742C195.232 226.47 195.296 225.973 195.841 225.652L201.801 222.208C202.362 221.887 203.195 221.855 203.675 222.128L209.684 225.604C210.164 225.877 210.1 226.373 209.555 226.694L203.595 230.139C203.034 230.459 202.201 230.491 201.721 230.219Z" fill="#2E2D3D"/>
<path d="M210.996 235.584L204.988 232.107C204.507 231.835 204.571 231.338 205.116 231.018L211.076 227.573C211.637 227.253 212.47 227.22 212.951 227.493L218.959 230.97C219.44 231.242 219.376 231.739 218.831 232.059L212.871 235.504C212.31 235.824 211.477 235.856 210.996 235.584Z" fill="#2E2D3D"/>
<path d="M220.273 240.937L214.265 237.461C213.785 237.188 213.849 236.692 214.393 236.371L220.354 232.926C220.914 232.606 221.747 232.574 222.228 232.846L228.236 236.323C228.717 236.595 228.653 237.092 228.108 237.413L222.148 240.857C221.587 241.178 220.754 241.21 220.273 240.937Z" fill="#2E2D3D"/>
<path d="M229.551 246.303L223.543 242.826C223.062 242.554 223.126 242.057 223.671 241.736L229.631 238.292C230.192 237.971 231.025 237.939 231.505 238.212L237.514 241.688C237.994 241.961 237.93 242.457 237.385 242.778L231.425 246.223C230.865 246.543 230.031 246.575 229.551 246.303Z" fill="#2E2D3D"/>
<path d="M238.844 251.654L232.836 248.177C232.355 247.905 232.419 247.408 232.964 247.088L238.924 243.643C239.485 243.323 240.318 243.291 240.798 243.563L246.807 247.04C247.287 247.312 247.223 247.809 246.678 248.129L240.718 251.574C240.158 251.895 239.324 251.927 238.844 251.654Z" fill="#2E2D3D"/>
<path d="M111.533 209.456L93.8287 199.234C93.348 198.962 93.4121 198.465 93.9569 198.145L99.917 194.7C100.478 194.379 101.311 194.347 101.792 194.62L119.496 204.842C119.976 205.114 119.912 205.611 119.368 205.931L113.408 209.376C112.847 209.696 112.014 209.728 111.533 209.456Z" fill="#2E2D3D"/>
<path d="M225.546 275.271L207.841 265.049C207.361 264.776 207.425 264.279 207.97 263.959L213.93 260.514C214.49 260.194 215.324 260.162 215.804 260.434L233.509 270.656C233.989 270.929 233.925 271.425 233.38 271.746L227.42 275.19C226.859 275.511 226.026 275.543 225.546 275.271Z" fill="#2E2D3D"/>
<path d="M188.438 265.69L182.43 262.213C181.95 261.941 182.014 261.444 182.558 261.124L189.656 257.022C190.217 256.702 191.05 256.67 191.531 256.942L197.539 260.419C198.02 260.691 197.956 261.188 197.411 261.508L190.313 265.61C189.752 265.93 188.919 265.962 188.438 265.69Z" fill="#2E2D3D"/>
<path d="M121.035 226.776L111.421 221.233C110.941 220.96 111.005 220.464 111.55 220.143L118.647 216.042C119.208 215.721 120.041 215.689 120.522 215.962L130.135 221.505C130.616 221.778 130.552 222.274 130.007 222.595L122.909 226.696C122.348 227.017 121.515 227.049 121.035 226.776Z" fill="#2E2D3D"/>
<path d="M179.498 260.519L169.884 254.975C169.404 254.703 169.468 254.206 170.013 253.885L177.11 249.784C177.671 249.463 178.504 249.431 178.985 249.704L188.598 255.247C189.079 255.52 189.015 256.016 188.47 256.337L181.372 260.438C180.811 260.759 179.978 260.791 179.498 260.519Z" fill="#2E2D3D"/>
<path d="M134.428 234.515L124.815 228.971C124.334 228.699 124.398 228.202 124.943 227.882L132.041 223.78C132.602 223.46 133.435 223.427 133.915 223.7L143.529 229.243C144.009 229.516 143.945 230.013 143.4 230.333L136.303 234.435C135.742 234.755 134.909 234.787 134.428 234.515Z" fill="#2E2D3D"/>
<path d="M133.996 223.727L175.781 247.856C176.294 248.16 176.294 248.641 175.781 248.945L168.555 253.127C168.043 253.431 167.193 253.431 166.681 253.127L124.896 228.998L134.012 223.743L133.996 223.727Z" fill="#2E2D3D"/>
<path d="M214.378 275.4L221.075 279.261C221.476 279.486 221.428 279.886 220.963 280.159L218.063 281.841C217.614 282.097 216.909 282.129 216.525 281.905L209.828 278.044C209.427 277.819 209.475 277.419 209.94 277.146L212.84 275.464C213.289 275.208 213.993 275.176 214.378 275.4Z" fill="#2E2D3D"/>
<path d="M205.022 270.005L211.719 273.867C212.119 274.091 212.071 274.492 211.607 274.764L208.707 276.446C208.242 276.703 207.553 276.735 207.169 276.51L200.471 272.649C200.071 272.425 200.119 272.024 200.583 271.752L203.483 270.07C203.932 269.813 204.637 269.781 205.022 270.005Z" fill="#2E2D3D"/>
<path d="M195.728 264.63L202.425 268.492C202.825 268.716 202.777 269.117 202.313 269.389L199.413 271.071C198.964 271.328 198.259 271.36 197.875 271.135L191.177 267.274C190.777 267.05 190.825 266.649 191.29 266.377L194.19 264.695C194.654 264.438 195.343 264.406 195.728 264.63Z" fill="#2E2D3D"/>
<path d="M210.133 267.035L216.83 270.896C217.231 271.12 217.183 271.521 216.718 271.793L213.818 273.476C213.369 273.732 212.664 273.764 212.28 273.54L205.583 269.678C205.182 269.454 205.23 269.054 205.695 268.781L208.595 267.099C209.043 266.843 209.748 266.81 210.133 267.035Z" fill="#2E2D3D"/>
</g>
<path d="M304.822 122.646C304.373 122.646 303.876 122.518 303.428 122.246C302.002 121.428 301.136 119.57 301.473 118.112C301.633 117.407 302.05 116.878 302.643 116.622C303.299 116.333 304.117 116.43 304.87 116.862C306.296 117.679 307.177 119.538 306.824 120.996C306.664 121.701 306.247 122.23 305.655 122.486C305.398 122.598 305.126 122.646 304.822 122.646ZM303.46 117.087C303.251 117.087 303.059 117.119 302.883 117.199C302.482 117.375 302.194 117.743 302.082 118.256C301.809 119.458 302.546 121.012 303.732 121.701C304.309 122.037 304.918 122.101 305.382 121.909C305.783 121.733 306.071 121.364 306.183 120.852C306.456 119.65 305.719 118.096 304.533 117.407C304.165 117.199 303.796 117.087 303.46 117.087Z" fill="#E47AD5"/>
<path d="M312.464 127.068C312 127.068 311.519 126.94 311.07 126.667C309.644 125.85 308.763 123.992 309.116 122.534C309.276 121.829 309.693 121.3 310.285 121.044C310.942 120.755 311.759 120.852 312.512 121.284C313.954 122.117 314.82 123.928 314.467 125.418C314.307 126.123 313.89 126.651 313.297 126.908C313.041 127.02 312.769 127.068 312.464 127.068ZM311.102 121.508C310.894 121.508 310.702 121.54 310.526 121.621C310.125 121.797 309.837 122.165 309.725 122.678C309.452 123.88 310.189 125.434 311.375 126.123C311.952 126.459 312.544 126.523 313.025 126.331C313.426 126.155 313.714 125.786 313.826 125.274C314.099 124.072 313.362 122.518 312.16 121.829C311.791 121.621 311.423 121.508 311.086 121.508H311.102Z" fill="#E47AD5"/>
<path d="M321.805 129.747C321.501 131.077 320.187 131.558 318.873 130.805C317.559 130.051 316.758 128.353 317.063 127.023C317.367 125.694 318.681 125.213 319.995 125.966C321.308 126.719 322.109 128.417 321.805 129.747Z" fill="#E47AD5"/>
<path d="M175.091 45.3282L171.006 42.957L171.31 41.0664L175.412 43.4216L175.091 45.3282Z" fill="#E47AD5"/>
<path d="M181.035 48.754L176.949 46.3828L177.27 44.4922L181.355 46.8634L181.035 48.754Z" fill="#E47AD5"/>
<path d="M169.195 41.9153L160.223 36.7402L160.543 34.8496L169.515 40.0247L169.195 41.9153Z" fill="#E47AD5"/>
<path d="M168.947 66.8977L171.775 64.8794C172.658 64.2026 173.89 64.1784 175.244 64.964L273.996 121.984C276.691 123.543 278.879 127.725 278.879 131.327V186.679C278.879 188.565 278.275 189.906 277.32 190.547L274.383 192.65L274.226 190.498C274.141 190.462 274.069 190.426 273.984 190.377L175.232 133.357C172.537 131.798 170.349 127.616 170.349 124.015V68.6622C170.349 68.1304 170.398 67.647 170.494 67.2119L168.947 66.9098V66.8977Z" fill="url(#paint6_linear_101_564)"/>
<path d="M278.626 129.103L252.557 144.15L245.994 140.355L275.592 123.266C277.018 124.752 278.142 126.916 278.626 129.103Z" fill="url(#paint7_linear_101_564)"/>
<path d="M172.295 135.448L271.047 192.469C273.742 194.028 275.93 192.372 275.93 188.771V133.418C275.93 129.816 273.742 125.635 271.047 124.076L172.295 67.0553C169.6 65.4963 167.412 67.152 167.412 70.7536V126.106C167.412 129.708 169.6 133.889 172.295 135.448Z" fill="#E47AD5"/>
<path d="M181.431 100.592L262.031 147.086C262.659 147.448 263.179 147.642 263.542 147.086C263.602 147.001 263.566 146.868 263.566 146.747V134.517C263.566 133.562 262.986 132.462 262.273 132.051L181.044 85.1584C180.984 85.1222 180.924 85.0618 180.851 85.0738C180.247 85.1705 180.223 85.7385 180.223 86.5966L180.029 98.3198C180.029 99.2746 180.706 100.181 181.419 100.592H181.431Z" fill="#6C38CC"/>
<path d="M181.263 127.181L261.995 173.711C262.612 174.073 263.421 174.448 263.542 173.735C263.554 173.626 263.566 173.517 263.566 173.396V161.166C263.566 160.211 262.986 159.111 262.273 158.7L181.045 111.808C180.985 111.771 180.924 111.735 180.864 111.723C180.235 111.481 180.078 112.291 180.078 113.149L180.042 124.727C180.042 125.682 180.55 126.758 181.263 127.169V127.181Z" fill="#6C38CC"/>
<path d="M180.863 85.0748C180.851 85.1715 180.839 85.2924 180.839 85.4012V97.6319C180.839 98.5867 181.419 99.6865 182.132 100.097L263.361 146.99C263.421 147.026 263.494 147.05 263.554 147.075C263.433 147.788 262.913 148.078 262.285 147.715L181.057 100.823C180.344 100.412 179.764 99.3118 179.764 98.357V86.1263C179.764 85.2682 180.247 84.8331 180.863 85.0628V85.0748Z" fill="#FAFAFA"/>
<path d="M180.863 111.723C180.851 111.82 180.839 111.94 180.839 112.061V124.292C180.839 125.247 181.419 126.347 182.132 126.758L263.361 173.65C263.421 173.686 263.494 173.711 263.554 173.735C263.433 174.448 262.913 174.738 262.285 174.375L181.057 127.483C180.344 127.072 179.764 125.972 179.764 125.017V112.786C179.764 111.928 180.247 111.493 180.863 111.723Z" fill="#FAFAFA"/>
<path d="M240.361 128.861L239.37 130.746L237.485 128.377L238.923 126.903L236.771 124.715L237.472 122.903L239.406 125.284L239.14 122.443L241.521 123.809L241.267 126.335L243.213 126.214L243.926 128.825L241.811 128.547L243.237 131.701L241.376 131.894L240.361 128.861Z" fill="#FAFAFA"/>
<path d="M231.019 123.472L230.028 125.358L228.143 122.989L229.581 121.514L227.43 119.327L228.131 117.514L230.064 119.895L229.799 117.055L232.179 118.42L231.926 120.946L233.871 120.825L234.584 123.436L232.469 123.158L233.896 126.312L232.034 126.506L231.019 123.472Z" fill="#FAFAFA"/>
<path d="M221.689 118.08L220.698 119.965L218.813 117.596L220.251 116.122L218.1 113.934L218.801 112.121L220.734 114.502L220.468 111.662L222.849 113.028L222.596 115.554L224.541 115.433L225.254 118.043L223.139 117.765L224.566 120.92L222.704 121.113L221.689 118.08Z" fill="#FAFAFA"/>
<path d="M212.347 112.691L211.356 114.576L209.471 112.208L210.909 110.733L208.758 108.546L209.459 106.733L211.392 109.114L211.127 106.273L213.507 107.639L213.254 110.165L215.2 110.044L215.913 112.655L213.798 112.377L215.224 115.531L213.362 115.724L212.347 112.691Z" fill="#FAFAFA"/>
<path d="M203.016 107.3L202.025 109.186L200.14 106.817L201.578 105.342L199.427 103.155L200.128 101.342L202.061 103.723L201.796 100.883L204.176 102.249L203.923 104.774L205.868 104.654L206.582 107.264L204.467 106.986L205.893 110.14L204.031 110.334L203.016 107.3Z" fill="#FAFAFA"/>
<path d="M240.361 155.523L239.37 157.408L237.485 155.04L238.923 153.565L236.771 151.378L237.472 149.565L239.406 151.946L239.14 149.105L241.521 150.471L241.267 152.997L243.213 152.876L243.926 155.487L241.811 155.209L243.237 158.363L241.376 158.557L240.361 155.523Z" fill="#FAFAFA"/>
<path d="M231.019 150.134L230.028 152.02L228.143 149.651L229.581 148.176L227.43 145.989L228.131 144.176L230.064 146.557L229.799 143.717L232.179 145.082L231.926 147.608L233.871 147.488L234.584 150.098L232.469 149.82L233.896 152.974L232.034 153.168L231.019 150.134Z" fill="#FAFAFA"/>
<path d="M221.689 144.744L220.698 146.629L218.813 144.26L220.251 142.786L218.1 140.598L218.801 138.785L220.734 141.166L220.468 138.326L222.849 139.692L222.596 142.218L224.541 142.097L225.254 144.707L223.139 144.429L224.566 147.584L222.704 147.777L221.689 144.744Z" fill="#FAFAFA"/>
<path d="M212.347 139.353L211.356 141.238L209.471 138.87L210.909 137.395L208.758 135.208L209.459 133.395L211.392 135.776L211.127 132.936L213.507 134.301L213.254 136.827L215.2 136.706L215.913 139.317L213.798 139.039L215.224 142.193L213.362 142.387L212.347 139.353Z" fill="#FAFAFA"/>
<path d="M203.016 133.962L202.025 135.848L200.14 133.479L201.578 132.005L199.427 129.817L200.128 128.004L202.061 130.385L201.796 127.545L204.176 128.911L203.923 131.437L205.868 131.316L206.582 133.926L204.467 133.648L205.893 136.803L204.031 136.996L203.016 133.962Z" fill="#FAFAFA"/>
</g>
<defs>
<linearGradient id="paint0_linear_101_564" x1="37.0587" y1="126.322" x2="348.915" y2="157.258" gradientUnits="userSpaceOnUse">
<stop stop-color="#D77BE6"/>
<stop offset="0.346875" stop-color="#BE63E6"/>
<stop offset="1" stop-color="#6C38CC"/>
</linearGradient>
<linearGradient id="paint1_linear_101_564" x1="342.537" y1="130.947" x2="121.611" y2="130.947" gradientUnits="userSpaceOnUse">
<stop stop-color="#C0BFF6"/>
<stop offset="0.29" stop-color="#C4C3F6"/>
<stop offset="0.64" stop-color="#D2D2F9"/>
<stop offset="1" stop-color="#E9E9FD"/>
</linearGradient>
<linearGradient id="paint2_linear_101_564" x1="308.985" y1="66.8985" x2="347.243" y2="67.4671" gradientUnits="userSpaceOnUse">
<stop stop-color="#D77BE6"/>
<stop offset="0.346875" stop-color="#BE63E6"/>
<stop offset="1" stop-color="#6C38CC"/>
</linearGradient>
<linearGradient id="paint3_linear_101_564" x1="37.1515" y1="109.558" x2="348.434" y2="142.399" gradientUnits="userSpaceOnUse">
<stop stop-color="#D77BE6"/>
<stop offset="0.346875" stop-color="#BE63E6"/>
<stop offset="1" stop-color="#6C38CC"/>
</linearGradient>
<linearGradient id="paint4_linear_101_564" x1="157.125" y1="40.8786" x2="468.408" y2="73.7193" gradientUnits="userSpaceOnUse">
<stop stop-color="#D77BE6"/>
<stop offset="0.346875" stop-color="#BE63E6"/>
<stop offset="1" stop-color="#6C38CC"/>
</linearGradient>
<linearGradient id="paint5_linear_101_564" x1="328.071" y1="172.208" x2="15.8836" y2="172.208" gradientUnits="userSpaceOnUse">
<stop stop-color="#C0BFF6"/>
<stop offset="0.29" stop-color="#C4C3F6"/>
<stop offset="0.64" stop-color="#D2D2F9"/>
<stop offset="1" stop-color="#E9E9FD"/>
</linearGradient>
<linearGradient id="paint6_linear_101_564" x1="181.714" y1="24.2866" x2="292.334" y2="29.8046" gradientUnits="userSpaceOnUse">
<stop stop-color="#D77BE6"/>
<stop offset="0.346875" stop-color="#BE63E6"/>
<stop offset="1" stop-color="#6C38CC"/>
</linearGradient>
<linearGradient id="paint7_linear_101_564" x1="249.784" y1="116.739" x2="282.431" y2="119.709" gradientUnits="userSpaceOnUse">
<stop stop-color="#D77BE6"/>
<stop offset="0.346875" stop-color="#BE63E6"/>
<stop offset="1" stop-color="#6C38CC"/>
</linearGradient>
<clipPath id="clip0_101_564">
<rect width="343" height="377" fill="white"/>
</clipPath>
</defs>
</svg>
