<svg width="154" height="110" viewBox="0 0 154 110" fill="none" xmlns="http://www.w3.org/2000/svg">
<path d="M128.663 96.4236C118 103.544 89.4418 105.023 76.5532 105C33.3755 105 23.1943 96.3772 18.821 91.3243C16.3836 88.5081 12.4718 81.3806 13.0593 68.1687C13.5221 57.7614 21.3663 7 78.4043 7C135.442 7 139.677 66.5925 139.955 68.1919C139.793 69.3972 141.991 87.523 128.663 96.4236Z" fill="url(#paint0_linear_4263_73)"/>
<path fill-rule="evenodd" clip-rule="evenodd" d="M72.8774 0.0414227C66.5295 0.317616 58.4471 1.97976 51.4607 4.44575C48.1484 5.61495 46.1441 6.46606 44.0531 7.59137C43.8193 7.71719 43.8037 7.71954 43.6809 7.64754C43.6104 7.60618 43.1655 7.34024 42.6922 7.05652C41.2219 6.17514 39.6904 5.48101 37.7148 4.80063C34.0834 3.54996 31.2631 3.07202 27.9462 3.14527C23.6961 3.23915 20.1888 4.02342 17.0489 5.58209C14.9646 6.61675 13.0687 7.85828 11.1878 9.42013C10.6949 9.82944 8.75981 11.7319 8.12577 12.4305C7.98752 12.5828 7.54984 13.0399 7.15314 13.4461C5.37046 15.2717 3.96028 17.3152 2.6783 19.9308C1.19086 22.9656 0.395601 25.7225 0.0822595 28.931C-0.0503617 30.2889 -0.0198003 32.4347 0.15357 33.9389C0.52878 37.1946 1.6292 40.8169 3.13292 43.7469C4.24962 45.9226 5.65012 48.0778 7.06206 49.7932C7.65125 50.509 8.66933 51.5086 9.15311 51.8462C9.37058 51.9979 9.74826 52.2679 9.99243 52.4461C10.2366 52.6244 10.4846 52.8019 10.5437 52.8405L10.651 52.9108L10.463 53.7636C9.67778 57.3261 9.06226 61.6115 8.7593 65.6245C8.61956 67.4758 8.58365 68.7781 8.61272 70.9416C8.73487 80.0359 8.72227 79.6447 8.96942 82.0096C9.27104 84.8952 9.82547 87.8037 10.5356 90.2253C10.651 90.6187 10.7645 91.0066 10.7878 91.0872C10.8571 91.3268 11.3656 92.7099 11.54 93.133C12.1947 94.7221 12.7511 95.7569 13.8725 97.4716C14.3676 98.2286 14.9226 98.7933 15.8519 99.4853C18.9355 101.782 22.9623 103.459 29.2952 105.083C31.7042 105.701 35.4164 106.393 40.8315 107.233C41.2536 107.299 41.913 107.403 42.2968 107.464C45.7947 108.024 53.8824 108.988 58.3453 109.377C64.483 109.913 67.1412 110.001 77.0221 110C84.5302 109.999 86.031 109.977 89.419 109.816C92.3357 109.678 96.8539 109.304 100.247 108.919C107.914 108.051 109.673 107.813 115.771 106.814C121.838 105.821 124.519 105.237 128.168 104.116C131.708 103.027 134.11 102.023 136.346 100.695C137.999 99.7142 139.464 98.5096 139.958 97.7255C140.07 97.5478 140.322 97.1532 140.518 96.8485C142.465 93.8205 143.764 90.1009 144.587 85.2017C145.131 81.961 145.298 79.7867 145.336 75.4556C145.348 74.0213 145.374 72.3182 145.392 71.6708C145.469 69.025 145.301 65.5007 144.958 62.5552C144.576 59.274 144.127 56.4718 143.586 53.9985C143.482 53.526 143.388 53.0876 143.376 53.0241C143.356 52.9216 143.411 52.8674 143.872 52.5395C145.091 51.6717 145.5 51.346 145.963 50.872C146.896 49.9167 147.764 48.8202 148.681 47.4393C151.092 43.8077 152.451 40.7208 153.333 36.8765C153.765 34.9897 153.946 33.5561 153.993 31.6311C154.075 28.2752 153.478 25.0207 152.217 21.9385C150.796 18.467 149.053 15.7025 146.891 13.4921C146.494 13.0859 145.925 12.494 145.628 12.1767C144.632 11.1141 143.338 9.84993 142.74 9.35501C140.873 7.81097 138.949 6.56746 136.82 5.52887C134.154 4.22771 131.616 3.56455 128.052 3.23735C126.793 3.12178 124.165 3.12183 123.074 3.23745C120.362 3.5249 117.838 4.166 114.864 5.32293C113.373 5.90282 112.361 6.40651 110.952 7.26939C110.565 7.50603 110.225 7.6996 110.195 7.6996C110.164 7.6996 109.926 7.58361 109.664 7.44187C107.597 6.32136 104.605 5.10867 100.886 3.88403C94.2737 1.70717 87.0864 0.318817 80.976 0.0381464C79.8332 -0.0143783 74.1063 -0.0120713 72.8774 0.0414227ZM79.3954 5.53164C84.6749 5.90485 89.3403 6.51272 91.2226 7.07263C91.4331 7.13526 91.7099 7.20085 91.8379 7.21838C92.0835 7.25208 95.3508 8.09529 96.6524 8.46089C102.896 10.2144 108.251 12.3373 112.934 14.9148C114.265 15.6474 116.018 16.6871 117.091 17.3805C117.491 17.639 118.73 18.5196 118.795 18.5918C118.808 18.606 118.912 18.6888 119.027 18.7756C119.569 19.1846 121.576 20.7719 122.144 21.2414C122.777 21.7647 122.912 21.8967 123.207 22.2842C123.805 23.0703 124.433 23.6069 125.224 24.0074C125.709 24.253 126.071 24.3345 126.55 24.3058C127.183 24.2678 127.617 23.9899 127.89 23.4476C128.302 22.6278 128.071 21.5874 127.138 20.0542C126.883 19.6359 126.842 19.5424 126.895 19.4938C127.093 19.3118 127.521 18.9953 127.677 18.9165C127.901 18.8033 128.635 18.5716 128.998 18.4995C130.066 18.2874 131.703 18.4224 132.938 18.8244C133.554 19.0247 134.599 19.5492 135.119 19.9189C135.928 20.4932 136.92 21.5146 137.484 22.3539C137.756 22.7581 138.269 23.7563 138.461 24.256C138.677 24.8187 138.969 25.8804 139.08 26.5079C139.206 27.2264 139.252 28.7068 139.172 29.4456C139.027 30.7746 138.851 31.5044 138.516 32.1663C138.26 32.6726 137.554 33.8371 137.413 33.9859C137.293 34.1132 136.944 34.2652 136.894 34.212C136.872 34.1887 136.701 33.8685 136.514 33.5004C135.642 31.7843 134.898 30.6426 133.893 29.4813C133.661 29.2127 133.34 28.8285 133.18 28.6274C131.97 27.1052 130.788 26.4683 129.776 26.7926C129.102 27.0084 128.659 27.8486 128.715 28.8024C128.758 29.5241 129.024 30.1433 129.847 31.4338C130.961 33.1812 131.301 33.7259 131.47 34.0312C131.569 34.2089 131.687 34.4207 131.732 34.5019C132.014 35.0031 133.948 38.6926 134.413 39.616C135.215 41.2066 136.028 43.0451 136.597 44.5546C137.338 46.5187 138.238 49.3396 138.767 51.3625C138.83 51.6037 138.945 52.0398 139.023 52.3318C139.1 52.6237 139.176 52.9872 139.193 53.1395C139.209 53.2918 139.327 53.863 139.455 54.4088C140.471 58.7394 141.367 64.4665 141.752 69.0861C142.138 73.7123 142.138 80.0881 141.753 82.7557C141.255 86.2063 141.05 87.2073 140.626 88.2842C140.132 89.5355 139.451 90.7841 138.715 91.7841C138.248 92.4185 136.835 94.1686 136.661 94.3272C136.595 94.3874 136.374 94.5966 136.169 94.7921C135.453 95.4764 133.726 96.9064 132.703 97.6623C129.65 99.9194 125.444 101.894 121.618 102.868C117.931 103.806 112.389 104.784 105.258 105.757C102.895 106.079 97.1964 106.401 83.6275 106.978C79.524 107.152 78.6212 107.18 76.9988 107.179C74.9336 107.178 73.2268 107.114 62.5086 106.633C56.7306 106.373 51.3478 106.053 49.6979 105.869C46.8054 105.548 39.7605 104.441 36.6682 103.822C32.0149 102.892 30.1414 102.33 26.946 100.91C24.1559 99.6689 21.6671 98.0565 18.8988 95.6959C17.9083 94.8514 17.1538 94.0753 16.3997 93.1257C15.0607 91.4394 14.626 90.7853 13.966 89.4637C13.1016 87.7329 12.8148 86.702 12.4121 83.8789C12.3614 83.5235 12.2875 83.0213 12.2478 82.7628C11.9137 80.5857 11.859 74.8998 12.1318 70.7016C12.4718 65.4686 13.4465 58.9627 14.6177 54.1087C14.7034 53.7533 14.7876 53.3379 14.8047 53.1856C14.8717 52.5909 15.8158 49.1872 16.4243 47.347C17.419 44.3382 18.1995 42.4312 19.5507 39.7083C20.1905 38.4189 20.6332 37.5734 22.0762 34.8851C22.7006 33.7216 22.9779 33.2576 23.924 31.7927C24.2436 31.2976 24.5655 30.7784 24.6391 30.6388C24.7128 30.4992 24.8271 30.2842 24.8931 30.161C25.4137 29.1904 25.4224 28.1347 24.9163 27.3578C24.6442 26.9401 24.2013 26.7151 23.6533 26.7161C23.2449 26.7169 22.9354 26.8113 22.5173 27.0625C21.8128 27.4858 21.5501 27.7353 20.6197 28.8645C20.3638 29.175 19.981 29.6337 19.7689 29.8839C19.3672 30.3578 18.5787 31.5026 18.2157 32.1388C18.0999 32.3419 17.8106 32.8819 17.5729 33.3389C17.3353 33.7958 17.1236 34.1887 17.1025 34.212C17.0496 34.2704 16.7233 34.1182 16.5793 33.968C16.4246 33.8066 15.7602 32.7138 15.475 32.1516C15.1565 31.5239 15.0201 30.9779 14.8513 29.6556C14.7703 29.0215 14.7603 27.784 14.8309 27.1407C15.0288 25.3385 15.7397 23.4307 16.7253 22.0567C17.0902 21.548 17.9486 20.647 18.4529 20.2434C19.5077 19.3993 20.7088 18.8428 22.0832 18.5616C22.877 18.3992 24.136 18.3596 24.8318 18.475C25.296 18.552 26.0101 18.7602 26.2919 18.9006C26.5212 19.0149 27.1088 19.4736 27.1088 19.5383C27.1088 19.5709 26.9923 19.792 26.8498 20.0296C25.9404 21.5462 25.7105 22.5811 26.1003 23.4036C26.3872 24.0089 26.9061 24.3155 27.6438 24.3155C28.1868 24.3155 28.6755 24.13 29.4115 23.6445C29.8774 23.3371 30.2216 23.0026 30.7394 22.3537C31.1589 21.8279 31.3895 21.6214 32.8072 20.5015C35.1433 18.6561 35.8175 18.1426 36.5984 17.6135C37.4111 17.063 39.1035 16.0213 39.9942 15.5233C40.1861 15.416 40.5838 15.1932 40.878 15.0282C44.8447 12.8039 49.9794 10.6739 55.0956 9.13051C57.4622 8.41653 61.5694 7.31379 62.2295 7.21501C62.3446 7.1978 62.6063 7.1342 62.811 7.07369C64.3934 6.60567 66.9019 6.23759 71.7423 5.76297C72.2363 5.71455 74.2063 5.55652 75.1381 5.49061C76.1966 5.4157 78.0014 5.4331 79.3954 5.53164ZM48.6464 49.5675C47.6876 49.6511 45.6895 49.9839 45.0413 50.1681C43.6265 50.5702 41.5929 51.7434 39.7383 53.2275C38.7269 54.0368 36.9898 55.6605 36.1043 56.6242C35.0097 57.8154 33.5649 59.6127 32.7278 60.8243C30.6158 63.8815 29.3104 66.4993 27.9407 70.4246C27.3895 72.0041 27.2386 72.5451 26.5058 75.571C26.2074 76.8031 26.1227 77.4143 26.1221 78.3403C26.1213 79.5272 26.4135 81.2448 26.7817 82.2173C27.258 83.4755 27.5373 83.9863 28.2913 84.9784C29.0961 86.0373 30.0775 86.9051 31.7856 88.0683C32.7816 88.7465 35.6535 90.297 36.8356 90.7946C37.9387 91.259 39.8218 91.8789 41.0641 92.1865C45.3333 93.2438 51.919 93.7092 56.4089 93.271C59.8246 92.9376 61.2508 92.7492 62.7412 92.4344C63.8098 92.2087 65.7406 91.5795 66.7418 91.1306C68.0666 90.5368 69.3252 89.4143 69.7753 88.4252C70.1752 87.5464 70.4655 86.3631 70.578 85.1533C70.7564 83.2359 70.7868 78.2831 70.6314 76.4479C70.357 73.2067 69.7604 69.603 69.1396 67.4363C68.2868 64.4595 67.3312 62.2402 65.9769 60.0911C64.4662 57.694 63.9248 56.9842 62.519 55.5574C61.2686 54.2884 60.253 53.4333 58.95 52.5527C57.3699 51.4848 55.3142 50.5968 53.2724 50.1002C52.2645 49.855 50.8306 49.6131 50.0885 49.5631C49.3382 49.5126 49.2746 49.5127 48.6464 49.5675ZM103.81 49.5633C103.225 49.6056 102.255 49.7647 101.258 49.9821C98.6914 50.5414 96.4267 51.5407 94.5359 52.9483C93.2048 53.9391 92.5923 54.4741 91.3245 55.7532C89.8968 57.1935 89.2907 58.0112 87.5649 60.8243C86.2239 63.0104 84.9259 66.6274 84.2359 70.1016C83.9086 71.7492 83.4914 74.8621 83.3388 76.7941C83.2134 78.3819 83.2815 83.9768 83.4444 85.4653C83.5531 86.4588 83.9322 87.8807 84.2621 88.5325C84.5011 89.0048 85.1692 89.7736 85.7441 90.2381C86.2297 90.6304 86.8983 91.0023 87.6978 91.3247C90.0668 92.2801 92.2806 92.7609 95.9081 93.1078C96.3047 93.1458 97.0687 93.2187 97.606 93.2698C102.085 93.6962 108.629 93.2461 112.771 92.2268C114.248 91.8632 116.19 91.2215 117.346 90.715C117.912 90.4667 119.502 89.6591 120.397 89.165C122.268 88.1322 123.66 87.1301 124.865 85.9491C125.439 85.3863 125.586 85.2049 126.244 84.2451C126.47 83.9146 126.927 83.0126 127.097 82.5619C127.82 80.6441 128.058 78.401 127.727 76.6325C127.585 75.8732 126.961 73.3351 126.678 72.3632C125.977 69.9617 124.786 66.9145 123.781 64.9552C122.552 62.5562 120.363 59.3603 118.703 57.5387C118.664 57.4958 118.444 57.2436 118.213 56.978C117.583 56.251 115.961 54.6614 115.073 53.9001C114.881 53.7356 114.714 53.5899 114.701 53.5763C114.688 53.5627 114.521 53.4264 114.329 53.2735C113.025 52.2342 111.468 51.2362 110.271 50.673C109.366 50.247 108.747 50.0711 107.351 49.8428C105.631 49.5613 104.772 49.4936 103.81 49.5633ZM58.7564 58.3274C59.4702 58.6119 59.7121 58.7712 60.1956 59.275C60.8475 59.9544 61.3414 60.8985 61.7791 62.3013C63.1602 66.7282 63.2458 72.8726 61.9908 77.5095C61.5433 79.1626 60.8941 80.7979 60.2593 81.8711C59.1595 83.7301 57.8305 84.8949 56.4982 85.1672C55.42 85.3876 54.4669 85.057 53.7117 84.2006C53.3947 83.8413 53.2462 83.616 52.9808 83.0919C52.3909 81.9272 52.0805 80.5618 51.895 78.3172C51.8293 77.5213 51.812 74.2 51.8677 73.0555C52.0712 68.8703 52.8775 64.5159 53.8613 62.2885C54.2142 61.4894 54.662 60.7476 55.3576 59.8097C56.4927 58.2793 57.5161 57.8329 58.7564 58.3274ZM97.0887 58.3543C97.6012 58.6064 98.153 59.1173 98.6101 59.7628C98.7089 59.9024 98.8804 60.1413 98.991 60.2937C99.5545 61.0696 100.086 62.0647 100.395 62.9244C101.201 65.1651 101.757 68.14 102.056 71.8093C102.144 72.8877 102.16 73.429 102.162 75.4094C102.165 77.8181 102.137 78.3938 101.951 79.7653C101.709 81.5525 101.335 82.6995 100.665 83.7095C99.8442 84.9463 98.673 85.4546 97.3613 85.143C96.6228 84.9677 95.7161 84.3565 94.9313 83.505C93.902 82.3885 92.9505 80.5881 92.3113 78.548C91.723 76.6701 91.4249 75.0936 91.2031 72.6862C91.1279 71.8698 91.1268 68.8486 91.2015 67.9784C91.398 65.6864 91.7018 64.0032 92.2177 62.3475C92.4307 61.6638 92.802 60.7351 93.0113 60.3628C93.4326 59.6129 94.1396 58.8651 94.6852 58.5925C95.7467 58.0622 96.3693 58.0004 97.0887 58.3543ZM76.3708 88.9346C75.7274 88.9829 74.697 89.146 74.0627 89.2999C72.673 89.637 71.7496 90.1203 71.1986 90.7988C70.5454 91.6035 70.4775 92.6302 71.0246 93.433C71.6009 94.2788 74.0106 95.696 75.5043 96.0676C75.6964 96.1155 75.8989 96.2042 76.0119 96.2902C76.2333 96.4586 76.5264 96.8657 76.5988 97.1053C76.7297 97.539 76.5737 98.2139 76.2455 98.6335C75.9006 99.0744 75.1998 99.5971 74.7095 99.7791C74.0288 100.032 73.7738 100.078 73.0448 100.078C72.3782 100.078 72.3283 100.071 71.9276 99.9302C71.6968 99.849 71.2758 99.6588 70.9919 99.5076C70.708 99.3563 70.4467 99.2285 70.4112 99.2235C70.1728 99.1905 69.9979 99.3322 69.9979 99.5585C69.9979 99.9553 71.2703 100.737 72.2841 100.963C72.7462 101.066 74.0674 101.065 74.5447 100.962C74.9868 100.866 75.5575 100.645 75.8355 100.462C76.179 100.237 76.5401 99.8417 76.7834 99.4257L77.0045 99.0476L77.0932 99.2173C77.6983 100.376 78.5988 100.918 80.108 101.031C80.9497 101.094 81.5758 101.032 82.193 100.823C82.7646 100.63 83.3693 100.29 83.7268 99.96C83.9865 99.7202 84.0052 99.6895 83.9913 99.5238C83.9792 99.3786 83.9482 99.3292 83.8247 99.2579L83.6729 99.1702L82.9874 99.5165C82.0088 100.011 81.7601 100.08 80.9528 100.079C80.422 100.078 80.2259 100.059 79.8924 99.9716C78.6645 99.6509 77.7113 98.8737 77.4337 97.967C77.2522 97.3741 77.3712 96.9153 77.8289 96.4427C78.0502 96.2141 78.1117 96.1792 78.4895 96.0676C79.9805 95.6272 82.0041 94.5051 82.7292 93.7166C83.2692 93.1293 83.4622 92.4318 83.2783 91.7314C83.0433 90.8362 82.3723 90.1792 81.2041 89.7005C79.9088 89.1697 77.7642 88.8298 76.3708 88.9346Z" fill="#0A183F"/>
<defs>
<linearGradient id="paint0_linear_4263_73" x1="76.5" y1="7" x2="76.5" y2="105" gradientUnits="userSpaceOnUse">
<stop stop-color="#FDFDFD"/>
<stop offset="1" stop-color="#DADFF2"/>
</linearGradient>
</defs>
</svg>
