<svg width="171" height="147" viewBox="0 0 171 147" fill="none" xmlns="http://www.w3.org/2000/svg">
<path opacity="0.5" d="M139.088 104.539L133.386 75.7519L114.04 58.403L85.2686 45.8787M85.2686 45.8787L84.3047 22.0857L41.39 12.6306L28.2592 41.0242L85.2686 45.8787Z" stroke="url(#paint0_linear_4154_220)"/>
<circle cx="85.4161" cy="45.6383" r="0.84727" transform="rotate(-148.441 85.4161 45.6383)" fill="#D9D9D9"/>
<circle cx="83.9172" cy="22.1808" r="0.84727" transform="rotate(-148.441 83.9172 22.1808)" fill="#D9D9D9"/>
<circle cx="41.3896" cy="12.632" r="0.84727" transform="rotate(-148.441 41.3896 12.632)" fill="#D9D9D9"/>
<path d="M27.8709 45.4063L29.234 41.6732L33.2 41.9278L29.467 40.5646L29.7215 36.5986L28.3584 40.3317L24.3924 40.0771L28.1254 41.4403L27.8709 45.4063Z" fill="#D9D9D9"/>
<g filter="url(#filter0_f_4154_220)">
<circle cx="2.08065" cy="2.08065" r="2.08065" transform="matrix(0.97863 0.205627 0.205627 -0.97863 26.3323 42.6108)" fill="#D9D9D9"/>
</g>
<circle cx="113.615" cy="58.3986" r="0.84727" transform="rotate(-148.441 113.615 58.3986)" fill="#D9D9D9"/>
<circle cx="133.45" cy="75.8502" r="0.84727" transform="rotate(-148.441 133.45 75.8502)" fill="#D9D9D9"/>
<circle cx="138.663" cy="104.535" r="0.84727" transform="rotate(-148.441 138.663 104.535)" fill="#D9D9D9"/>
<defs>
<filter id="filter0_f_4154_220" x="24.7152" y="36.9214" width="8.16211" height="8.16211" filterUnits="userSpaceOnUse" color-interpolation-filters="sRGB">
<feFlood flood-opacity="0" result="BackgroundImageFix"/>
<feBlend mode="normal" in="SourceGraphic" in2="BackgroundImageFix" result="shape"/>
<feGaussianBlur stdDeviation="1" result="effect1_foregroundBlur_4154_220"/>
</filter>
<linearGradient id="paint0_linear_4154_220" x1="95.1851" y1="62.2442" x2="109.385" y2="37.5191" gradientUnits="userSpaceOnUse">
<stop offset="0.212615" stop-color="white"/>
<stop offset="0.822217" stop-color="#626262"/>
</linearGradient>
</defs>
</svg>
