<svg width="122" height="109" viewBox="0 0 122 109" fill="none" xmlns="http://www.w3.org/2000/svg">
<path opacity="0.2" d="M115.539 102.329L94.4631 72.2745M94.4631 72.2745L84.5455 33.3997L6.78452 6.66884L15.0698 44.141L94.4631 72.2745Z" stroke="url(#paint0_linear_4205_585)"/>
<path d="M1.98122 7.99198L6.12432 8.1975L7.09602 12.2303L7.30154 8.08718L11.3343 7.11547L7.19122 6.90995L6.21952 2.87718L6.014 7.02027L1.98122 7.99198Z" fill="#D9D9D9"/>
<g filter="url(#filter0_f_4205_585)">
<circle cx="2.17175" cy="2.17175" r="2.17175" transform="matrix(0.0933042 0.995638 0.995638 -0.0933042 4.29297 5.59375)" fill="#D9D9D9"/>
</g>
<g filter="url(#filter1_f_4205_585)">
<circle cx="2.17175" cy="2.17175" r="2.17175" transform="matrix(0.60803 0.793914 0.793914 -0.60803 81.5449 33.2988)" fill="#D9D9D9"/>
</g>
<g filter="url(#filter2_f_4205_585)">
<circle cx="2.17175" cy="2.17175" r="2.17175" transform="matrix(0.60803 0.793914 0.793914 -0.60803 91.1582 71.8589)" fill="#D9D9D9"/>
</g>
<path d="M112.076 102.749L115.089 102.898L115.795 105.831L115.945 102.818L118.878 102.111L115.865 101.962L115.158 99.0289L115.008 102.042L112.076 102.749Z" fill="#D9D9D9"/>
<g filter="url(#filter3_f_4205_585)">
<circle cx="1.57945" cy="1.57945" r="1.57945" transform="matrix(0.0933042 0.995638 0.995638 -0.0933042 113.757 101.005)" fill="#D9D9D9"/>
</g>
<g filter="url(#filter4_f_4205_585)">
<circle cx="2.17175" cy="2.17175" r="2.17175" transform="matrix(0.0933042 0.995638 0.995638 -0.0933042 12.9009 42.5283)" fill="#D9D9D9"/>
</g>
<defs>
<filter id="filter0_f_4205_585" x="2.48584" y="3.38135" width="8.34375" height="8.34375" filterUnits="userSpaceOnUse" color-interpolation-filters="sRGB">
<feFlood flood-opacity="0" result="BackgroundImageFix"/>
<feBlend mode="normal" in="SourceGraphic" in2="BackgroundImageFix" result="shape"/>
<feGaussianBlur stdDeviation="1" result="effect1_foregroundBlur_4205_585"/>
</filter>
<filter id="filter1_f_4205_585" x="81.418" y="30.5308" width="6.34326" height="6.34375" filterUnits="userSpaceOnUse" color-interpolation-filters="sRGB">
<feFlood flood-opacity="0" result="BackgroundImageFix"/>
<feBlend mode="normal" in="SourceGraphic" in2="BackgroundImageFix" result="shape"/>
<feGaussianBlur stdDeviation="0.5" result="effect1_foregroundBlur_4205_585"/>
</filter>
<filter id="filter2_f_4205_585" x="91.0312" y="69.0908" width="6.34326" height="6.34375" filterUnits="userSpaceOnUse" color-interpolation-filters="sRGB">
<feFlood flood-opacity="0" result="BackgroundImageFix"/>
<feBlend mode="normal" in="SourceGraphic" in2="BackgroundImageFix" result="shape"/>
<feGaussianBlur stdDeviation="0.5" result="effect1_foregroundBlur_4205_585"/>
</filter>
<filter id="filter3_f_4205_585" x="111.897" y="98.8506" width="7.15918" height="7.15918" filterUnits="userSpaceOnUse" color-interpolation-filters="sRGB">
<feFlood flood-opacity="0" result="BackgroundImageFix"/>
<feBlend mode="normal" in="SourceGraphic" in2="BackgroundImageFix" result="shape"/>
<feGaussianBlur stdDeviation="1" result="effect1_foregroundBlur_4205_585"/>
</filter>
<filter id="filter4_f_4205_585" x="11.0938" y="40.3159" width="8.34375" height="8.34375" filterUnits="userSpaceOnUse" color-interpolation-filters="sRGB">
<feFlood flood-opacity="0" result="BackgroundImageFix"/>
<feBlend mode="normal" in="SourceGraphic" in2="BackgroundImageFix" result="shape"/>
<feGaussianBlur stdDeviation="1" result="effect1_foregroundBlur_4205_585"/>
</filter>
<linearGradient id="paint0_linear_4205_585" x1="81.6952" y1="55.6787" x2="-1.25725" y2="31.4937" gradientUnits="userSpaceOnUse">
<stop offset="0.212615" stop-color="white"/>
<stop offset="0.822217" stop-color="#626262"/>
</linearGradient>
</defs>
</svg>
